<svg xmlns="http://www.w3.org/2000/svg" viewBox="0 -0.5 32 32" shape-rendering="crispEdges">
<metadata>Made with Pixels to Svg https://codepen.io/shshaw/pen/XbxvNj</metadata>
<path stroke="#0f4e7a" d="M8 3h1M14 3h1M20 3h1M8 4h1M13 4h1M19 4h1M8 5h1M15 5h1M21 5h1M8 6h1M13 6h1M19 6h1M5 8h1M5 9h1M5 10h1M5 11h1M5 12h1M21 12h1M5 13h1M21 13h1M5 14h1M20 14h1M5 15h1M19 15h1M5 16h1M18 16h1M6 17h1M17 17h1M6 18h1M20 18h1M6 19h1M21 19h1M6 20h1M21 20h1M6 21h1M21 21h1M6 22h1M21 22h1M7 23h1M21 23h1M7 24h1M20 24h1M7 25h1M18 25h2M8 26h1M8 27h3M11 28h4M15 29h1" />
<path stroke="#1572b6" d="M9 3h3M15 3h3M21 3h3M9 4h1M14 4h2M20 4h2M9 5h1M16 5h2M22 5h2M9 6h3M14 6h3M20 6h3M6 8h21M6 9h21M6 10h21M6 11h21M6 12h5M22 12h5M6 13h5M22 13h5M6 14h5M21 14h6M6 15h9M20 15h7M6 16h8M19 16h8M7 17h6M18 17h8M7 18h5M21 18h5M7 19h5M22 19h4M7 20h10M22 20h4M7 21h11M22 21h4M7 22h4M14 22h3M22 22h4M8 23h3M22 23h3M8 24h4M21 24h4M8 25h6M20 25h5M9 26h15M11 27h13M15 28h6M16 29h1" />
</svg>