<svg xmlns="http://www.w3.org/2000/svg" viewBox="0 -0.5 32 32" shape-rendering="crispEdges">
<metadata>Made with Pixels to Svg https://codepen.io/shshaw/pen/XbxvNj</metadata>
<path stroke="#ad791f" d="M13 3h1M17 3h1M13 4h1M16 4h1M10 5h1M13 5h1M18 5h1M11 6h1M16 6h1M5 8h1M5 9h1M5 10h1M5 11h1M5 12h1M22 12h1M5 13h1M22 13h1M5 14h1M22 14h1M5 15h1M12 15h1M5 16h1M12 16h1M6 17h1M22 17h1M6 18h1M22 18h1M6 19h1M22 19h1M6 20h1M22 20h1M6 21h1M12 21h1M22 21h1M6 22h1M13 22h1M22 22h1M7 23h1M22 23h1M7 24h1M21 24h1M7 25h1M8 26h1M8 27h3M11 28h4M15 29h1" />
<path stroke="#e5a228" d="M14 3h1M18 3h3M14 4h1M17 4h2M11 5h1M14 5h1M19 5h2M12 6h2M17 6h3M6 8h21M6 9h21M6 10h21M6 11h21M6 12h4M23 12h4M6 13h4M23 13h4M6 14h4M23 14h4M6 15h4M13 15h14M6 16h4M13 16h14M7 17h3M23 17h3M7 18h3M23 18h3M7 19h12M23 19h3M7 20h12M23 20h3M7 21h3M13 21h6M23 21h3M7 22h3M14 22h4M23 22h3M8 23h2M23 23h2M8 24h3M22 24h3M8 25h17M9 26h15M11 27h13M15 28h6M16 29h1" />
</svg>