<svg xmlns="http://www.w3.org/2000/svg" viewBox="0 -0.5 64 64" shape-rendering="crispEdges">
<metadata>Made with Pixels to Svg https://codepen.io/shshaw/pen/XbxvNj</metadata>
<path stroke="#3d0801" d="M0 0h3M25 0h1M28 0h1M31 0h2M46 0h1M63 4h1M16 63h1M39 63h2" />
<path stroke="#410901" d="M3 0h1M59 0h1M25 63h1" />
<path stroke="#350701" d="M4 0h1M19 0h1" />
<path stroke="#3e0901" d="M5 0h1M39 0h2M1 63h1M47 63h1M59 63h1" />
<path stroke="#2c0601" d="M6 0h1M34 0h1M41 0h1M63 27h1M63 39h1M63 40h1M63 58h1M0 60h1M0 61h1M3 63h1" />
<path stroke="#2a0601" d="M7 0h2M0 12h1M63 20h1M63 21h1M0 35h1M63 38h1M63 45h1M63 47h1M63 51h1M0 54h1M19 63h1" />
<path stroke="#270501" d="M9 0h1M37 0h1M0 32h1M63 44h1M0 51h1M0 63h1M57 63h1" />
<path stroke="#1f0401" d="M10 0h1M0 21h1M63 61h1M20 63h1" />
<path stroke="#330701" d="M11 0h1M60 0h1M63 34h1M63 42h1M5 63h1M12 63h1M26 63h1M51 63h1" />
<path stroke="#3a0801" d="M12 0h1M48 0h1" />
<path stroke="#4a0a01" d="M13 0h1M18 0h1M63 9h1" />
<path stroke="#310701" d="M14 0h1M17 0h1M55 0h2M63 25h1M0 58h1M0 59h1M9 63h1M14 63h1M41 63h2" />
<path stroke="#2f0601" d="M15 0h1M35 0h1M62 0h1M0 3h1M0 6h1M0 7h1M0 8h1M0 11h1M63 35h1M0 36h1M63 55h1M63 56h1M63 60h1M10 63h1M46 63h1" />
<path stroke="#370801" d="M16 0h1M33 0h1M61 0h1" />
<path stroke="#320701" d="M20 0h1M51 0h1M57 0h1M43 63h1" />
<path stroke="#400901" d="M21 0h1M36 0h1M0 31h1M48 63h1" />
<path stroke="#3c0801" d="M22 0h1M53 0h1M63 7h1M63 8h1M0 10h1M22 63h1M27 63h1M29 63h1M45 63h1" />
<path stroke="#450901" d="M23 0h2M29 0h1M50 0h1M34 63h1" />
<path stroke="#390801" d="M26 0h1M47 0h1M54 0h1M0 9h1M6 63h1M30 63h1M53 63h1M58 63h1M63 63h1" />
<path stroke="#340701" d="M27 0h1M30 0h1M45 0h1M7 63h2M13 63h1M44 63h1M52 63h1M60 63h1" />
<path stroke="#2f0701" d="M38 0h1M42 0h1" />
<path stroke="#2d0601" d="M43 0h1M21 63h1" />
<path stroke="#3f0901" d="M44 0h1M31 63h1" />
<path stroke="#4f0b01" d="M49 0h1" />
<path stroke="#440901" d="M52 0h1" />
<path stroke="#370701" d="M58 0h1M63 46h1M17 63h1M33 63h1" />
<path stroke="#380801" d="M63 0h1M63 6h1M63 10h1M28 63h1M38 63h1M50 63h1M54 63h1" />
<path stroke="#200501" d="M0 1h1M63 13h1M63 30h1" />
<path stroke="#9a6c35" d="M1 1h1M16 1h1M59 16h1M1 53h1M59 54h1M1 58h1M46 62h1" />
<path stroke="#a47c3c" d="M2 1h1M26 1h1M38 1h1M16 4h1" />
<path stroke="#9b6e35" d="M3 1h1M14 1h1M49 1h1M41 4h1M59 4h1M1 23h1M1 24h1M59 26h1M59 34h1M62 34h1M21 59h1M5 62h1M31 62h1" />
<path stroke="#9c7036" d="M4 1h1M59 1h1M57 4h1M4 9h1M62 18h1M59 19h1M59 41h1M4 58h1" />
<path stroke="#9d7137" d="M5 1h1M21 1h1M27 1h1M37 1h1M44 1h1M60 1h1M9 4h1M51 4h1M62 13h1M62 25h1M59 32h1M59 35h1M4 44h1M4 48h1M59 59h1M1 60h1M7 62h2M26 62h1" />
<path stroke="#966732" d="M6 1h1M29 4h1M4 5h1M4 57h1M51 62h1" />
<path stroke="#a07639" d="M7 1h2M25 1h1M35 4h1M4 42h1M62 42h1M20 62h1M29 62h1" />
<path stroke="#8f5c2c" d="M9 1h1M53 1h1M5 4h1M1 20h1M62 38h1" />
<path stroke="#a67e3e" d="M10 1h1M32 4h1M62 48h1M25 62h1" />
<path stroke="#a1773a" d="M11 1h1M59 9h1M62 17h1M62 50h1M1 54h1M5 59h1M9 59h1M19 59h1M28 62h1" />
<path stroke="#a57d3d" d="M12 1h1M59 22h1M59 53h1M1 55h1M1 56h1M16 59h1" />
<path stroke="#986a33" d="M13 1h1M1 21h1M62 23h1M62 24h1M62 27h1M1 47h1M54 59h1M23 62h2M50 62h1" />
<path stroke="#9f7438" d="M15 1h1M48 4h1M58 4h1M59 18h1M62 19h1M59 50h1M1 57h1M38 59h1M16 62h1M22 62h1M30 62h1M53 62h1" />
<path stroke="#956531" d="M17 1h1M19 1h1M42 1h1M45 1h1M22 4h1M31 4h1M4 12h1M1 13h1M4 51h1M4 53h1M4 54h1M62 58h1M57 59h1M43 62h1M54 62h1M59 62h1" />
<path stroke="#a7803e" d="M18 1h1M34 1h1M39 1h2M54 4h1M1 48h1M62 49h1M15 59h1M62 61h1M2 62h1" />
<path stroke="#a07539" d="M20 1h1M36 1h1M62 4h1M1 14h1M62 26h1M59 42h1M13 59h1" />
<path stroke="#b28f46" d="M22 1h1" />
<path stroke="#af8b44" d="M23 1h2M62 16h1M62 55h1M62 56h1" />
<path stroke="#a8813f" d="M28 1h1M1 2h1M62 47h1M1 49h1M1 50h1M62 57h1M6 59h1" />
<path stroke="#a98240" d="M29 1h2M32 1h2M62 1h1M62 2h1M62 3h1M15 4h1M62 7h1M62 8h1M12 62h1" />
<path stroke="#a77f3e" d="M31 1h1M34 4h1M62 9h1M1 15h1M59 28h1" />
<path stroke="#ac8642" d="M35 1h1M59 5h1M59 6h1M59 31h1M62 59h1" />
<path stroke="#9b6f36" d="M41 1h1M59 21h1" />
<path stroke="#92612f" d="M43 1h1M4 10h1M1 22h1M1 37h1M1 38h1M29 59h1" />
<path stroke="#915f2f" d="M46 1h1M4 6h1M4 13h1M62 28h1" />
<path stroke="#8b572a" d="M47 1h1M1 30h1M33 62h1" />
<path stroke="#8a5629" d="M48 1h1M1 25h1M4 31h1" />
<path stroke="#936330" d="M50 1h1M62 31h1M4 45h1M32 59h1M57 62h1" />
<path stroke="#93622f" d="M51 1h1M62 12h1M1 42h1M19 62h1" />
<path stroke="#956632" d="M52 1h1M55 1h2M1 10h1M1 36h1M59 38h1M1 45h1M59 51h1" />
<path stroke="#885228" d="M54 1h1M4 25h1M4 34h1" />
<path stroke="#9a6d35" d="M57 1h1M1 5h1M62 35h1M62 51h1M59 57h1M1 59h1M6 62h1M41 62h1M55 62h2" />
<path stroke="#976832" d="M58 1h1M45 4h1M1 28h1M25 59h1M14 62h1M61 62h1" />
<path stroke="#a47a3b" d="M61 1h1M59 15h1" />
<path stroke="#2e0601" d="M63 1h1M63 49h1" />
<path stroke="#230501" d="M0 2h1M63 14h1M63 48h1M0 49h1M0 52h1M63 52h1M0 57h1M63 59h1M63 62h1" />
<path stroke="#e6be94" d="M2 2h1M2 19h1M2 27h1" />
<path stroke="#e7c199" d="M3 2h1M18 2h1M61 3h1M61 5h1M61 36h1M51 61h1" />
<path stroke="#e9c59f" d="M4 2h1M61 10h1M61 25h1M2 34h1M61 58h1M42 61h1" />
<path stroke="#eacaa7" d="M5 2h1M19 2h1M39 2h2M47 2h1M2 6h1M2 14h1M2 17h1M61 33h1M2 43h1M61 57h1M17 61h1M43 61h1" />
<path stroke="#ebcba9" d="M6 2h1M31 2h1M38 2h1M46 2h1M51 2h1M55 2h2M2 7h1M61 7h1M2 8h1M61 8h1M61 30h1M61 47h1M5 61h1M9 61h1M23 61h2M27 61h2M33 61h1M44 61h1M60 61h1" />
<path stroke="#e9c6a0" d="M7 2h2M61 4h1M61 9h1M61 19h1M2 41h1M61 46h1M2 59h1M38 61h1" />
<path stroke="#e7c29b" d="M9 2h1" />
<path stroke="#e6c197" d="M10 2h1M17 2h1M2 25h1M21 61h1" />
<path stroke="#e7c19a" d="M11 2h2M36 2h1M61 37h1M30 61h1" />
<path stroke="#e9c7a1" d="M13 2h1M61 21h1M61 27h1" />
<path stroke="#e9c5a0" d="M14 2h1M61 31h1M2 35h1M2 58h1" />
<path stroke="#e6c097" d="M15 2h1M61 2h1M2 26h1M2 29h1M45 61h1" />
<path stroke="#e6bf96" d="M16 2h1M2 31h1M2 55h1M2 56h1" />
<path stroke="#eacaa6" d="M20 2h1M59 2h1M2 36h1M2 38h1M2 52h1M46 61h1" />
<path stroke="#e8c49e" d="M21 2h1M61 11h1M61 45h1M59 61h1" />
<path stroke="#e7c39b" d="M22 2h1M30 2h1M2 13h1M2 18h1" />
<path stroke="#e6c198" d="M23 2h2" />
<path stroke="#e9c8a5" d="M25 2h1M2 5h1M61 18h1M61 52h1M18 61h1" />
<path stroke="#eac9a6" d="M26 2h1M35 2h1M61 28h1M61 29h1M2 37h1M61 38h1M61 59h1M20 61h1M31 61h2M36 61h1" />
<path stroke="#e9c8a3" d="M27 2h1M61 35h1M2 39h1M2 40h1" />
<path stroke="#eacaa8" d="M28 2h1M61 42h1" />
<path stroke="#e9c6a1" d="M29 2h1M61 23h1M61 24h1M61 43h1M2 57h1M19 61h1M55 61h2" />
<path stroke="#ebccaa" d="M32 2h1M48 2h1M60 2h1M61 22h1M2 44h1M2 46h1M2 51h1M61 51h1M6 61h1" />
<path stroke="#e9c7a3" d="M33 2h1M2 4h1M61 6h1M2 12h1M61 12h1M61 13h1M61 14h1M61 17h1M7 61h2M11 61h1M22 61h1M39 61h2M50 61h1M53 61h1" />
<path stroke="#edd1b3" d="M34 2h1M2 49h1" />
<path stroke="#eccdae" d="M37 2h1M61 50h1" />
<path stroke="#edd2b4" d="M41 2h1M10 61h1M15 61h1M48 61h1" />
<path stroke="#ebccab" d="M42 2h1M45 2h1M52 2h1M2 3h1M2 45h1M61 49h1M29 61h1M58 61h1" />
<path stroke="#eccdac" d="M43 2h1M49 2h1M53 2h1M57 2h2M2 10h1M61 20h1M61 39h1M61 40h1M2 48h1M35 61h1M57 61h1" />
<path stroke="#e9c8a4" d="M44 2h1M61 16h1M61 32h1M61 53h1" />
<path stroke="#eccfaf" d="M50 2h1M26 61h1" />
<path stroke="#eed2b5" d="M54 2h1M4 61h1" />
<path stroke="#420901" d="M63 2h1M63 3h1M63 5h1" />
<path stroke="#a1783b" d="M1 3h1M12 4h1M47 4h1M50 4h1M53 4h1M38 62h1" />
<path stroke="#914811" d="M3 3h1M10 3h2M57 3h1M39 60h2M52 60h1" />
<path stroke="#954b12" d="M4 3h1M28 3h1M32 3h1M51 3h1" />
<path stroke="#944a12" d="M5 3h1M22 3h1M26 3h1M31 3h1M3 16h1M37 60h2M43 60h1" />
<path stroke="#964c12" d="M6 3h1M18 3h1M37 3h1" />
<path stroke="#8d4510" d="M7 3h2M19 3h1M34 3h1M54 3h1M3 54h1M13 60h1" />
<path stroke="#904711" d="M9 3h1M35 3h1M14 60h1M32 60h1M59 60h1" />
<path stroke="#843f0f" d="M12 3h1M44 3h1M3 27h1M27 60h1M34 60h1M50 60h1M53 60h1" />
<path stroke="#84400f" d="M13 3h1M3 52h1" />
<path stroke="#984c12" d="M14 3h1M20 3h1M36 3h1M49 3h2M53 3h1" />
<path stroke="#8f4711" d="M15 3h1" />
<path stroke="#924911" d="M16 3h1" />
<path stroke="#874210" d="M17 3h1" />
<path stroke="#934911" d="M21 3h1M42 3h1M46 3h1" />
<path stroke="#994d12" d="M23 3h2" />
<path stroke="#a15213" d="M25 3h1" />
<path stroke="#9b4e12" d="M27 3h1M48 3h1M3 17h1M11 60h1" />
<path stroke="#9a4e12" d="M29 3h1M38 3h1M41 3h1M43 3h1" />
<path stroke="#974c12" d="M30 3h1M3 46h1" />
<path stroke="#8a4410" d="M33 3h1M59 3h1M60 32h1M3 49h1M10 60h1M15 60h1M23 60h2M36 60h1" />
<path stroke="#9d4f12" d="M39 3h2" />
<path stroke="#954a12" d="M45 3h1M47 3h1" />
<path stroke="#76370d" d="M52 3h1M60 12h1M60 17h1M3 19h1M60 51h1M60 57h1M4 60h1" />
<path stroke="#70320c" d="M55 3h2M60 20h1M3 30h1M3 48h1" />
<path stroke="#8d4610" d="M58 3h1M3 36h1M46 60h1" />
<path stroke="#72340d" d="M60 3h1M60 13h1" />
<path stroke="#1c0401" d="M0 4h1M0 38h1M63 53h1" />
<path stroke="#ad8843" d="M1 4h1M10 62h1M13 62h1M17 62h1" />
<path stroke="#6c2f0b" d="M3 4h1M60 16h1M60 38h1" />
<path stroke="#8b562a" d="M4 4h1M4 15h1M34 62h1" />
<path stroke="#9e7238" d="M6 4h1M1 9h1M4 47h1" />
<path stroke="#8a561a" d="M7 4h2M4 46h1" />
<path stroke="#a2793b" d="M10 4h1M59 29h1M59 47h1M59 58h1M11 62h1" />
<path stroke="#9c671f" d="M11 4h1" />
<path stroke="#966832" d="M13 4h1M4 41h1M1 52h1M62 53h1M62 60h1" />
<path stroke="#7f4a17" d="M14 4h1M4 55h1M4 56h1" />
<path stroke="#865219" d="M17 4h1" />
<path stroke="#804723" d="M18 4h1" />
<path stroke="#8d5a2c" d="M19 4h1M25 4h1M1 32h1M48 59h1M1 62h1" />
<path stroke="#693611" d="M20 4h1" />
<path stroke="#8c592b" d="M21 4h1M4 18h1M1 43h1M35 62h1M37 62h1" />
<path stroke="#734014" d="M23 4h2M4 20h1M4 33h1M4 39h1M4 40h1M30 59h1" />
<path stroke="#8e5b2c" d="M26 4h1M1 6h1M26 59h1M42 59h1" />
<path stroke="#703d13" d="M27 4h1" />
<path stroke="#905f2e" d="M28 4h1M4 28h1M62 36h1M34 59h1M44 59h1M50 59h1M58 59h1M36 62h1M58 62h1" />
<path stroke="#834f18" d="M30 4h1M23 59h2" />
<path stroke="#8b561a" d="M33 4h1M43 4h1M4 52h1" />
<path stroke="#88531a" d="M36 4h1M4 14h1M59 36h1M59 46h1M39 59h2" />
<path stroke="#9e7338" d="M37 4h1M1 16h1M62 30h1M62 43h1M10 59h1M15 62h1M21 62h1" />
<path stroke="#a47b3c" d="M38 4h1" />
<path stroke="#925e1d" d="M39 4h2M7 59h2" />
<path stroke="#9e7438" d="M42 4h1M1 11h1M1 19h1M62 37h1M1 39h1M1 40h1M62 44h1M59 48h1M18 59h1M22 59h1M45 62h1" />
<path stroke="#a37a3b" d="M44 4h1M62 11h1M62 20h1M59 25h1" />
<path stroke="#8e591b" d="M46 4h1M59 17h1" />
<path stroke="#8f5b1c" d="M49 4h1M14 59h1" />
<path stroke="#915c1c" d="M52 4h1M59 23h1M59 24h1M59 49h1" />
<path stroke="#935e1d" d="M55 4h2" />
<path stroke="#75350d" d="M60 4h1M60 14h1M60 52h1" />
<path stroke="#180300" d="M0 5h1M0 16h1" />
<path stroke="#77370d" d="M3 5h1M3 7h1M3 8h1M3 20h1" />
<path stroke="#5b250b" d="M5 5h1M5 21h1M5 31h1" />
<path stroke="#62280c" d="M6 5h1M58 29h1M5 32h1M58 52h1" />
<path stroke="#7d3610" d="M7 5h2M29 5h1M58 23h1M58 24h1" />
<path stroke="#76320f" d="M9 5h1M5 6h1" />
<path stroke="#682b0d" d="M10 5h1M58 20h1M58 26h1M58 34h1M58 46h1M29 58h1" />
<path stroke="#6e2e0d" d="M11 5h1M48 5h1M27 58h1" />
<path stroke="#813710" d="M12 5h1" />
<path stroke="#7e3610" d="M13 5h1M58 38h1M5 52h1" />
<path stroke="#7f3610" d="M14 5h1M58 44h1M5 50h1" />
<path stroke="#803710" d="M15 5h1M46 58h1" />
<path stroke="#843910" d="M16 5h1M58 7h1M58 8h1" />
<path stroke="#823810" d="M17 5h1M45 5h1M58 41h1M49 58h1" />
<path stroke="#8e3e12" d="M18 5h1" />
<path stroke="#883b11" d="M19 5h1M5 48h1" />
<path stroke="#9d4414" d="M20 5h1" />
<path stroke="#903e12" d="M21 5h1" />
<path stroke="#913e12" d="M22 5h1" />
<path stroke="#8f3e12" d="M23 5h2" />
<path stroke="#873a11" d="M25 5h2M37 5h1M10 58h1M12 58h1" />
<path stroke="#944113" d="M27 5h1" />
<path stroke="#8b3c12" d="M28 5h1M31 5h1M58 36h1M5 47h1M7 58h2" />
<path stroke="#75310f" d="M30 5h1" />
<path stroke="#863911" d="M32 5h1M34 5h1M58 12h1M9 58h1" />
<path stroke="#8d3d12" d="M33 5h1" />
<path stroke="#59240a" d="M35 5h1M58 57h1M19 58h1" />
<path stroke="#662a0d" d="M36 5h1M54 5h1M58 27h1M58 28h1M58 54h1M18 58h1M52 58h1" />
<path stroke="#803610" d="M38 5h1M58 14h1" />
<path stroke="#74310e" d="M39 5h2M5 11h1M58 37h1M30 58h1M33 58h1M35 58h1" />
<path stroke="#6b2d0d" d="M41 5h1M47 5h1M53 5h1M5 23h1M5 24h1M58 25h1M58 33h1M5 35h1M41 58h1" />
<path stroke="#7b3410" d="M42 5h1M49 5h1M58 17h1M5 39h1M5 40h1M58 42h1M51 58h1" />
<path stroke="#7a3410" d="M43 5h2M58 22h1M5 46h1M5 49h1M5 55h1M5 56h1" />
<path stroke="#79330f" d="M46 5h1M58 39h1M58 40h1M5 43h1M5 51h1M5 53h1" />
<path stroke="#63290c" d="M50 5h1M58 6h1M58 10h1M58 11h1M5 12h1M58 18h1M58 30h1M58 49h1M58 58h1" />
<path stroke="#6f2f0e" d="M51 5h1M58 15h1M58 32h1M5 37h1M58 55h1M58 56h1M13 58h1M48 58h1" />
<path stroke="#672a0d" d="M52 5h1M58 19h1M58 51h1M43 58h1M53 58h1" />
<path stroke="#77330f" d="M55 5h2M5 45h1M34 58h1" />
<path stroke="#652a0d" d="M57 5h1" />
<path stroke="#7c3510" d="M58 5h1M58 35h1M5 57h1" />
<path stroke="#7a380d" d="M60 5h1M60 28h1M3 58h1M22 60h1" />
<path stroke="#996b34" d="M62 5h1M62 14h1M62 15h1M31 59h1M4 62h1M27 62h1M49 62h1M62 62h1" />
<path stroke="#7a390d" d="M3 6h1M3 26h1" />
<path stroke="#682d0b" d="M60 6h1" />
<path stroke="#b69549" d="M62 6h1" />
<path stroke="#8c592c" d="M1 7h1M1 8h1" />
<path stroke="#824e17" d="M4 7h1M4 8h1M59 14h1" />
<path stroke="#61270c" d="M5 7h1M5 8h1M20 58h1" />
<path stroke="#88541a" d="M59 7h1M59 8h1M20 59h1" />
<path stroke="#6d310c" d="M60 7h1M60 8h1M60 54h1M60 58h1" />
<path stroke="#ecd0b1" d="M2 9h1" />
<path stroke="#75360d" d="M3 9h1M60 18h1M3 42h1M3 44h1M60 45h1M3 51h1M3 59h1M47 60h1" />
<path stroke="#692c0d" d="M5 9h1M17 58h1M36 58h1" />
<path stroke="#73300e" d="M58 9h1M58 16h1M11 58h1" />
<path stroke="#632a0a" d="M60 9h1" />
<path stroke="#74350d" d="M3 10h1M60 50h1M60 55h1M60 56h1" />
<path stroke="#72300e" d="M5 10h1M5 17h1M26 58h1" />
<path stroke="#b69649" d="M59 10h1" />
<path stroke="#78380d" d="M60 10h1M3 12h1M60 15h1M3 18h1M3 23h1M3 24h1M3 37h1M3 50h1M28 60h1M58 60h1" />
<path stroke="#986b34" d="M62 10h1M1 31h1M62 33h1M62 46h1M1 51h1M62 52h1" />
<path stroke="#e8c49d" d="M2 11h1M2 28h1M2 32h1M2 33h1M2 42h1M61 44h1M25 61h1M41 61h1M52 61h1" />
<path stroke="#7b3a0d" d="M3 11h1M3 28h1M60 35h1M60 48h1M30 60h1M60 60h1" />
<path stroke="#7c4716" d="M4 11h1" />
<path stroke="#905c1c" d="M59 11h1" />
<path stroke="#7c3b0e" d="M60 11h1M60 27h1M60 31h1M3 32h1M60 49h1M42 60h1" />
<path stroke="#260501" d="M63 11h1M63 26h1M63 33h1" />
<path stroke="#946430" d="M1 12h1M1 27h1M62 32h1M62 45h1M4 59h1M37 59h1M51 59h1M32 62h1M42 62h1" />
<path stroke="#8f5d2d" d="M59 12h1M4 16h1M62 22h1M1 46h1M47 62h1" />
<path stroke="#220501" d="M63 12h1" />
<path stroke="#280501" d="M0 13h1" />
<path stroke="#894310" d="M3 13h1M3 34h1M3 35h1M60 36h1M3 41h1M3 53h1" />
<path stroke="#60270c" d="M5 13h1M58 50h1M28 58h1" />
<path stroke="#6f2e0d" d="M58 13h1M58 21h1M5 41h1M32 58h1" />
<path stroke="#b8984b" d="M59 13h1" />
<path stroke="#1d0401" d="M0 14h1M63 17h1M0 29h1M0 47h1" />
<path stroke="#833f0f" d="M3 14h1M60 42h1M19 60h1M26 60h1M41 60h1" />
<path stroke="#6e2d0d" d="M5 14h1M5 22h1M58 31h1M14 58h1" />
<path stroke="#200401" d="M0 15h1M0 23h1M0 24h1M0 48h1" />
<path stroke="#eac9a5" d="M2 15h1M61 15h1M2 16h1M2 61h1" />
<path stroke="#823e0f" d="M3 15h1M60 39h1M60 40h1M6 60h1" />
<path stroke="#5c250b" d="M5 15h1M5 20h1" />
<path stroke="#170300" d="M63 15h1M0 39h1M0 40h1M0 41h1M0 44h1M0 45h1" />
<path stroke="#6d2d0d" d="M5 16h1M58 47h1M38 58h1" />
<path stroke="#1a0400" d="M63 16h1M0 27h1M0 28h1M63 37h1M11 63h1" />
<path stroke="#250501" d="M0 17h1M63 32h1M0 37h1M63 54h1M15 63h1" />
<path stroke="#8f5c2d" d="M1 17h1M1 18h1M1 29h1M35 59h1M41 59h1M53 59h1M44 62h1M48 62h1" />
<path stroke="#7c4816" d="M4 17h1M46 59h1" />
<path stroke="#150300" d="M0 18h1M0 20h1M0 25h1M0 43h1M0 62h1" />
<path stroke="#6a2c0d" d="M5 18h1M5 26h1M22 58h1M50 58h1" />
<path stroke="#1e0401" d="M63 18h1M0 19h1M0 26h1M0 30h1M0 46h1M0 50h1" />
<path stroke="#895329" d="M4 19h1" />
<path stroke="#74300e" d="M5 19h1" />
<path stroke="#71330c" d="M60 19h1M3 22h1M3 57h1" />
<path stroke="#190400" d="M63 19h1" />
<path stroke="#e7c29a" d="M2 20h1M2 22h1M61 60h1M61 61h1" />
<path stroke="#855119" d="M59 20h1M11 59h1" />
<path stroke="#e8c39c" d="M2 21h1M2 23h1M2 24h1M2 60h1M34 61h1M37 61h1" />
<path stroke="#6f320c" d="M3 21h1" />
<path stroke="#844d25" d="M4 21h1" />
<path stroke="#7b3a0e" d="M60 21h1M3 25h1M60 43h1M3 47h1" />
<path stroke="#92602f" d="M62 21h1M28 59h1M47 59h1" />
<path stroke="#130300" d="M0 22h1M0 33h1" />
<path stroke="#804722" d="M4 22h1" />
<path stroke="#813e0f" d="M60 22h1M60 25h1M3 33h1M29 60h1" />
<path stroke="#2b0601" d="M63 22h1M63 29h1M63 50h1M32 63h1M55 63h2" />
<path stroke="#6c3911" d="M4 23h1M4 24h1" />
<path stroke="#803d0e" d="M60 23h1M60 24h1M60 41h1M60 59h1M51 60h1" />
<path stroke="#360701" d="M63 23h1M63 24h1M23 63h2M37 63h1M62 63h1" />
<path stroke="#6c2d0d" d="M5 25h1M5 34h1M5 42h1M31 58h1" />
<path stroke="#895429" d="M1 26h1M4 37h1" />
<path stroke="#834c25" d="M4 26h1" />
<path stroke="#864110" d="M60 26h1M3 60h1M31 60h1M44 60h2M55 60h3" />
<path stroke="#eed3b7" d="M61 26h1" />
<path stroke="#6f3c12" d="M4 27h1" />
<path stroke="#5f270b" d="M5 27h1M5 29h1M15 58h1M21 58h1" />
<path stroke="#814d17" d="M59 27h1" />
<path stroke="#5e260b" d="M5 28h1M5 30h1M5 33h1" />
<path stroke="#240501" d="M63 28h1M63 31h1M63 41h1M18 63h1" />
<path stroke="#833e0f" d="M3 29h1M3 38h1M5 60h1" />
<path stroke="#854e26" d="M4 29h1M4 32h1" />
<path stroke="#7e3c0e" d="M60 29h1M3 45h1M60 53h1M3 55h1M3 56h1M25 60h1" />
<path stroke="#986933" d="M62 29h1M59 37h1M62 41h1M4 50h1" />
<path stroke="#e9c7a2" d="M2 30h1M2 54h1" />
<path stroke="#703c12" d="M4 30h1" />
<path stroke="#945f1d" d="M59 30h1M36 59h1" />
<path stroke="#874110" d="M60 30h1M9 60h1M33 60h1M35 60h1" />
<path stroke="#7e3b0e" d="M3 31h1M60 33h1M3 43h1M60 47h1" />
<path stroke="#865027" d="M1 33h1" />
<path stroke="#855018" d="M59 33h1M4 43h1" />
<path stroke="#160300" d="M0 34h1" />
<path stroke="#854d26" d="M1 34h1M4 35h1" />
<path stroke="#8b4410" d="M60 34h1M7 60h2M17 60h2" />
<path stroke="#edd0b2" d="M61 34h1M47 61h1M49 61h1" />
<path stroke="#905e2e" d="M1 35h1M1 41h1M1 44h1M45 59h1M1 61h1M60 62h1" />
<path stroke="#7d4917" d="M4 36h1M4 49h1" />
<path stroke="#71300e" d="M5 36h1M37 58h1M42 58h1M45 58h1M57 58h1" />
<path stroke="#210501" d="M63 36h1" />
<path stroke="#6c300b" d="M60 37h1M60 46h1" />
<path stroke="#834a24" d="M4 38h1" />
<path stroke="#78330f" d="M5 38h1M58 48h1M23 58h2" />
<path stroke="#854110" d="M3 39h1M3 40h1M12 60h1M21 60h1M49 60h1" />
<path stroke="#845018" d="M59 39h1M59 40h1" />
<path stroke="#92622f" d="M62 39h1M62 40h1M59 45h1M12 59h1M39 62h2M52 62h1" />
<path stroke="#ebcaa8" d="M61 41h1M61 48h1M54 61h1" />
<path stroke="#1b0400" d="M0 42h1" />
<path stroke="#923f12" d="M58 43h1" />
<path stroke="#8e5a1b" d="M59 43h1" />
<path stroke="#300701" d="M63 43h1M4 63h1" />
<path stroke="#77320f" d="M5 44h1M25 58h1" />
<path stroke="#8c582b" d="M59 44h1" />
<path stroke="#79380d" d="M60 44h1" />
<path stroke="#833810" d="M58 45h1M6 58h1M47 58h1" />
<path stroke="#e5bd92" d="M2 47h1" />
<path stroke="#ecd0b0" d="M2 50h1" />
<path stroke="#8d591b" d="M59 52h1M17 59h1" />
<path stroke="#1c0400" d="M0 53h1M63 57h1" />
<path stroke="#eed2b6" d="M2 53h1M61 54h1" />
<path stroke="#5a240b" d="M58 53h1M16 58h1" />
<path stroke="#8a3b12" d="M5 54h1" />
<path stroke="#b29046" d="M62 54h1" />
<path stroke="#290601" d="M0 55h1M0 56h1" />
<path stroke="#8b571a" d="M59 55h1M59 56h1" />
<path stroke="#eed5ba" d="M61 55h1M61 56h1" />
<path stroke="#8e3d12" d="M5 58h1" />
<path stroke="#853911" d="M39 58h2" />
<path stroke="#7d3510" d="M44 58h1M54 58h1" />
<path stroke="#64290c" d="M55 58h2" />
<path stroke="#7c4916" d="M27 59h1" />
<path stroke="#764314" d="M33 59h1" />
<path stroke="#764214" d="M43 59h1" />
<path stroke="#764114" d="M49 59h1" />
<path stroke="#89551a" d="M52 59h1" />
<path stroke="#98631e" d="M55 59h2" />
<path stroke="#7f3c0e" d="M16 60h1M48 60h1" />
<path stroke="#884210" d="M20 60h1" />
<path stroke="#7d3b0e" d="M54 60h1" />
<path stroke="#eccdad" d="M3 61h1M16 61h1" />
<path stroke="#ecceaf" d="M12 61h1M14 61h1" />
<path stroke="#eccfb0" d="M13 61h1" />
<path stroke="#ab8541" d="M3 62h1M9 62h1" />
<path stroke="#aa8440" d="M18 62h1" />
<path stroke="#470a01" d="M2 63h1" />
<path stroke="#4d0a01" d="M35 63h1" />
<path stroke="#4e0b01" d="M36 63h1" />
<path stroke="#490a01" d="M49 63h1" />
<path stroke="#3b0801" d="M61 63h1" />
</svg>