<svg xmlns="http://www.w3.org/2000/svg" viewBox="0 -0.5 27 27" shape-rendering="crispEdges">
<metadata>Made with Pixels to Svg https://codepen.io/shshaw/pen/XbxvNj</metadata>
<path stroke="#8d9cc1" d="M5 1h1M21 1h2M3 2h2M23 2h1M3 3h2M23 3h1M3 4h2M23 4h1M3 5h2M23 5h1M3 6h2M23 6h1M3 7h2M23 7h1M3 8h2M23 8h1M3 9h2M23 9h1M3 10h2M23 10h1M3 11h2M23 11h1M3 12h2M23 12h1M3 13h2M23 13h1M3 14h2M23 14h1M3 15h2M23 15h1M3 16h2M23 16h1M3 17h2M23 17h1M3 18h2M23 18h1M5 19h18M3 20h2M6 20h15M23 20h1M5 21h18" />
<path stroke="#516085" d="M6 1h15M2 4h1M24 4h1M2 5h1M24 5h1M2 6h1M24 6h1M2 7h1M24 7h1M2 8h1M24 8h1M2 9h1M24 9h1M2 10h1M24 10h1M2 11h1M24 11h1M2 12h1M24 12h1M2 13h1M24 13h1M2 14h1M24 14h1M2 15h1M24 15h1M2 16h1M24 16h1M2 17h1M24 17h1M2 18h1M5 18h1M21 18h2M24 18h1M2 19h3M23 19h2M2 20h1M5 20h1M21 20h2M24 20h1M2 21h3M23 21h2M2 22h23M2 23h23M3 24h21" />
<path stroke="#c9d8ec" d="M5 2h18M5 3h18M5 4h4M13 4h2M19 4h4M5 5h4M13 5h2M19 5h4M5 6h4M13 6h1M19 6h4M5 7h4M18 7h5M5 8h4M17 8h6M5 9h4M16 9h7M5 10h4M16 10h7M5 11h4M17 11h6M5 12h4M18 12h5M5 13h4M13 13h1M19 13h4M5 14h4M13 14h2M19 14h4M5 15h4M13 15h2M19 15h4M5 16h18M6 17h15" />
<path stroke="#3e4d71" d="M1 4h1M25 4h1M1 5h1M25 5h1M1 6h1M25 6h1M1 7h1M25 7h1M1 8h1M25 8h1M1 9h1M25 9h1M1 10h1M25 10h1M1 11h1M25 11h1M1 12h1M25 12h1M1 13h1M25 13h1M1 14h1M25 14h1M1 15h1M25 15h1M1 16h1M25 16h1M1 17h1M25 17h1M1 18h1M25 18h1M1 19h1M25 19h1M1 20h1M25 20h1M1 21h1M25 21h1M1 22h1M25 22h1M1 23h1M25 23h1M1 24h2M24 24h2M2 25h23" />
<path stroke="#3a3a5e" d="M9 4h4M15 4h4M9 5h4M15 5h4M0 6h1M9 6h4M14 6h5M26 6h1M0 7h1M9 7h9M26 7h1M0 8h1M9 8h8M26 8h1M0 9h1M9 9h7M26 9h1M0 10h1M9 10h7M26 10h1M0 11h1M9 11h8M26 11h1M0 12h1M9 12h9M26 12h1M0 13h1M9 13h4M14 13h5M26 13h1M0 14h1M9 14h4M15 14h4M26 14h1M0 15h1M9 15h4M15 15h4M26 15h1M0 16h1M26 16h1M0 17h1M26 17h1M0 18h1M26 18h1M0 19h1M26 19h1M0 20h1M26 20h1M0 21h1M26 21h1M0 22h1M26 22h1M0 23h1M26 23h1M0 24h1M26 24h1M1 25h1M25 25h1M2 26h23" />
<path stroke="#eefef9" d="M5 17h1M21 17h2M6 18h15" />
</svg>