<svg xmlns="http://www.w3.org/2000/svg" viewBox="0 -0.5 96 180" shape-rendering="crispEdges">
<metadata>Made with Pixels to Svg https://codepen.io/shshaw/pen/XbxvNj</metadata>
<path stroke="#daa9b6" d="M3 0h1M92 0h1M1 1h2M93 1h2M1 2h2M93 2h2M1 3h2M93 3h2M1 4h2M93 4h2M1 5h2M93 5h2M1 6h2M93 6h2M1 7h2M93 7h2M1 8h2M93 8h2M1 9h2M93 9h2M1 10h2M93 10h2M1 11h2M93 11h2M1 12h2M93 12h2M1 13h2M93 13h2M1 14h2M93 14h2M1 15h2M93 15h2M1 16h2M93 16h2M1 17h2M93 17h2M1 18h2M93 18h2M1 19h2M93 19h2M1 20h2M93 20h2M1 21h2M93 21h2M1 22h2M93 22h2M1 23h2M93 23h2M1 24h2M93 24h2M1 25h2M93 25h2M1 26h2M93 26h2M1 27h2M93 27h2M1 28h2M93 28h2M1 29h2M93 29h2M1 30h2M93 30h2M1 31h2M93 31h2M1 32h2M93 32h2M1 33h2M93 33h2M1 34h2M93 34h2M1 35h2M93 35h2M1 36h2M93 36h2M1 37h2M93 37h2M1 38h2M93 38h2M1 39h2M93 39h2M1 40h2M93 40h2M1 41h2M93 41h2M1 42h2M93 42h2M1 43h2M93 43h2M1 44h2M93 44h2M1 45h2M93 45h2M1 46h2M93 46h2M1 47h2M93 47h2M1 48h2M93 48h2M1 49h2M93 49h2M1 50h2M93 50h2M1 51h2M93 51h2M1 52h2M93 52h2M1 53h2M93 53h2M1 54h2M93 54h2M1 55h2M93 55h2M1 56h2M93 56h2M1 57h2M93 57h2M0 58h3M93 58h3M0 59h3M93 59h3M0 60h3M93 60h3M0 61h3M93 61h3M0 62h3M93 62h3M0 63h3M93 63h3M0 64h3M93 64h3M0 65h3M93 65h3M0 66h3M93 66h3M0 67h3M93 67h3M0 68h3M93 68h3M0 69h3M93 69h3M0 70h3M93 70h3M0 71h3M93 71h3M0 72h3M93 72h3M0 73h3M93 73h3M0 74h3M93 74h3M0 75h3M93 75h3M0 76h3M93 76h3M0 77h3M93 77h3M0 78h3M93 78h3M0 79h3M93 79h3M0 80h3M93 80h3M0 81h3M93 81h3M0 82h3M93 82h3M0 83h3M93 83h3M0 84h3M93 84h3M0 85h3M93 85h3M0 86h3M93 86h3M0 87h3M93 87h3M0 88h3M93 88h3M0 89h3M93 89h3M0 90h3M93 90h3M0 91h3M93 91h3M0 92h3M93 92h3M0 93h3M93 93h3M0 94h3M93 94h3M0 95h3M93 95h3M0 96h3M93 96h3M0 97h3M93 97h3M0 98h3M93 98h3M0 99h3M93 99h3M0 100h3M93 100h3M0 101h3M93 101h3M0 102h3M93 102h3M0 103h3M93 103h3M0 104h3M93 104h3M0 105h3M93 105h3M0 106h3M93 106h3M0 107h1M95 107h1M0 109h1M95 109h1M0 110h2M94 110h2M0 111h3M93 111h3M0 112h3M93 112h3M0 113h3M93 113h3M0 114h3M93 114h3M0 115h3M93 115h3M1 116h2M93 116h2M1 140h1M94 140h1M0 141h1M95 141h1M0 142h1M95 142h1M0 143h1M95 143h1M0 144h1M95 144h1M0 145h1M95 145h1M0 146h1M95 146h1M0 147h1M95 147h1M0 148h1M95 148h1M0 149h1M95 149h1M0 150h1M95 150h1M0 151h1M95 151h1M0 152h1M95 152h1M0 153h1M95 153h1M0 154h1M95 154h1M0 155h1M95 155h1M0 156h1M95 156h1M0 157h1M95 157h1M0 158h1M95 158h1M0 159h1M95 159h1M0 160h1M95 160h1M0 161h1M95 161h1M0 162h1M95 162h1M0 163h1M95 163h1M0 164h1M95 164h1M0 165h1M95 165h1M0 166h1M95 166h1M0 167h1M95 167h1M0 168h1M95 168h1M0 169h1M95 169h1M0 170h1M95 170h1M0 171h1M95 171h1M0 172h1M95 172h1M0 173h1M95 173h1M0 174h1M95 174h1" />
<path stroke="#f9e9c2" d="M4 0h88M3 1h1M92 1h1M3 2h1M92 2h1M45 90h2M82 118h1M3 138h90M2 139h1M93 139h1" />
<path stroke="#f5d7b8" d="M4 1h88M4 2h88M3 3h90M3 4h90M3 5h1M92 5h1M12 67h2M82 67h2M11 68h12M73 68h12M11 69h74M13 70h70M47 90h24M70 91h1M70 92h1M71 93h16M83 118h1M85 118h2M3 139h90M2 140h92M1 141h2M93 141h2M1 142h1M94 142h1" />
<path stroke="#e7beaf" d="M4 5h88M3 6h90M3 7h90M3 8h90M3 9h90M3 10h90M3 11h11M82 11h11M3 12h8M85 12h8M3 13h7M86 13h7M3 14h6M87 14h6M3 15h6M87 15h6M3 16h6M87 16h6M3 17h6M87 17h6M3 18h6M87 18h6M3 19h6M87 19h6M3 20h6M87 20h6M3 21h6M87 21h6M3 22h6M87 22h6M3 23h6M87 23h6M3 24h6M87 24h6M3 25h6M87 25h6M3 26h6M87 26h6M3 27h6M87 27h6M3 28h6M87 28h6M3 29h6M87 29h6M3 30h6M87 30h6M3 31h6M87 31h6M3 32h6M87 32h6M3 33h6M87 33h6M3 34h6M87 34h6M3 35h6M87 35h6M3 36h6M87 36h6M3 37h6M87 37h6M3 38h6M87 38h6M3 39h6M87 39h6M3 40h6M87 40h6M3 41h6M87 41h6M3 42h6M87 42h6M3 43h6M87 43h6M3 44h6M87 44h6M3 45h6M87 45h6M3 46h6M87 46h6M3 47h6M87 47h6M3 48h6M87 48h6M3 49h6M87 49h6M3 50h6M87 50h6M3 51h6M87 51h6M3 52h6M87 52h6M3 53h6M87 53h6M3 54h6M87 54h6M3 55h6M87 55h6M3 56h6M87 56h6M3 57h6M87 57h6M3 58h6M87 58h6M3 59h6M87 59h6M3 60h6M87 60h6M3 61h6M87 61h6M3 62h6M87 62h6M3 63h6M87 63h6M3 64h6M87 64h6M3 65h6M87 65h6M3 66h6M87 66h6M3 67h6M87 67h6M3 68h7M86 68h7M3 69h8M85 69h8M3 70h10M83 70h10M3 71h90M3 72h90M3 73h90M3 74h90M3 75h90M3 76h90M3 77h90M3 78h90M3 79h90M3 80h90M3 81h90M3 82h90M3 83h90M3 84h90M3 85h68M87 85h6M3 86h68M87 86h6M3 87h68M87 87h6M3 88h42M87 88h6M3 89h42M87 89h6M3 90h42M87 90h6M3 91h67M87 91h6M3 92h67M87 92h6M3 93h68M87 93h6M3 94h90M3 95h90M3 96h90M3 97h90M3 98h90M3 99h90M3 100h90M3 101h90M3 102h90M3 103h90M3 104h90M3 117h79M87 117h6M3 118h79M87 118h6M3 119h81M85 119h8M3 120h81M85 120h8M3 141h90M2 142h92M1 143h94M1 144h10M85 144h10M1 145h9M86 145h9M1 146h8M87 146h8M1 147h7M88 147h7M1 148h7M88 148h7M1 149h7M88 149h7M1 150h7M88 150h7M1 151h7M88 151h7M1 152h7M88 152h7M1 153h7M88 153h7M1 154h7M88 154h7M1 155h7M88 155h7M1 156h7M88 156h7M1 157h7M88 157h7M1 158h7M88 158h7M1 159h7M88 159h7M1 160h7M88 160h7M1 161h7M88 161h7M1 162h7M88 162h7M1 163h7M88 163h7M1 164h7M88 164h7M1 165h7M88 165h7M1 166h7M88 166h7M1 167h7M88 167h7M1 168h7M88 168h7M1 169h8M87 169h8M1 170h9M86 170h9M1 171h10M85 171h10M1 172h94M1 173h94M1 174h94M1 175h94M2 176h92" />
<path stroke="#b468b0" d="M14 11h68M11 12h74M10 13h76M9 14h14M73 14h14M9 15h8M80 15h7M9 16h5M82 16h5M9 17h4M83 17h4M9 18h3M84 18h3M9 19h3M84 19h3M10 20h1M85 20h1" />
<path stroke="#653d50" d="M23 14h50M17 15h63M14 16h10M72 16h10M13 17h5M79 17h4M12 18h3M81 18h3M12 19h2M82 19h2M11 20h2M83 20h2M11 21h2M83 21h2" />
<path stroke="#7dceff" d="M24 16h48M18 17h61M15 18h66M14 19h68M13 20h70M13 21h70M13 22h70M13 23h70M13 24h70M13 25h70M13 26h70M13 27h70M13 28h70M13 29h70M13 30h70M13 31h70M13 32h70M13 33h70M13 34h70M13 35h70M13 36h70M13 37h70M13 38h70M13 39h70M13 40h70M13 41h70M13 42h70M13 43h70M13 44h70M13 45h70M13 46h70M13 47h70M13 48h70M13 49h70M13 50h70M13 51h70M13 52h70M13 53h70M13 54h70M13 55h70M13 56h70M13 57h70M13 58h70M13 59h70M13 60h70M13 61h70M13 62h70M13 63h70M14 64h68M15 65h66M24 66h48" />
<path stroke="#ce94bc" d="M9 20h1M86 20h1M9 21h2M85 21h2M9 22h2M85 22h2M9 23h2M85 23h2M9 24h2M85 24h2M9 25h2M85 25h2M9 26h2M85 26h2M9 27h2M85 27h2M9 28h2M85 28h2M9 29h2M85 29h2M9 30h2M85 30h2M9 31h2M85 31h2M9 32h2M85 32h2M9 33h2M85 33h2M9 34h2M85 34h2M9 35h2M85 35h2M9 36h2M85 36h2M9 37h2M85 37h2M9 38h2M85 38h2M9 39h2M85 39h2M9 40h2M85 40h2M9 41h2M85 41h2M9 42h2M85 42h2M9 43h2M85 43h2M9 44h2M85 44h2M9 45h2M85 45h2M9 46h2M85 46h2M9 47h2M85 47h2M9 48h2M85 48h2M9 49h2M85 49h2M9 50h2M85 50h2M9 51h2M85 51h2M9 52h2M85 52h2M9 53h2M85 53h2M9 54h2M85 54h2M9 55h2M85 55h2M9 56h2M85 56h2M9 57h2M85 57h2M9 58h2M85 58h2M9 59h2M85 59h2M9 60h2M85 60h2M9 61h2M85 61h2M9 62h2M85 62h2M9 63h2M85 63h2M9 64h3M84 64h3M9 65h3M84 65h3M9 66h4M83 66h4M9 67h3M84 67h3M10 68h1M85 68h1" />
<path stroke="#87526b" d="M11 22h2M83 22h2M11 23h2M83 23h2M11 24h2M83 24h2M11 25h2M83 25h2M11 26h2M83 26h2M11 27h2M83 27h2M11 28h2M83 28h2M11 29h2M83 29h2M11 30h2M83 30h2M11 31h2M83 31h2M11 32h2M83 32h2M11 33h2M83 33h2M11 34h2M83 34h2M11 35h2M83 35h2M11 36h2M83 36h2M11 37h2M83 37h2M11 38h2M83 38h2M11 39h2M83 39h2M11 40h2M83 40h2M11 41h2M83 41h2M11 42h2M83 42h2M11 43h2M83 43h2M11 44h2M83 44h2M11 45h2M83 45h2M11 46h2M83 46h2M11 47h2M83 47h2M11 48h2M83 48h2M11 49h2M83 49h2M11 50h2M83 50h2M11 51h2M83 51h2M11 52h2M83 52h2M11 53h2M83 53h2M11 54h2M83 54h2M11 55h2M83 55h2M11 56h2M83 56h2M11 57h2M83 57h2M11 58h2M83 58h2M11 59h2M83 59h2M11 60h2M83 60h2M11 61h2M83 61h2M11 62h2M83 62h2M11 63h2M83 63h2M12 64h2M82 64h2M12 65h3M81 65h3M13 66h11M72 66h11M14 67h68M23 68h50M71 85h16M71 86h16M71 87h16M45 88h42M45 89h42M71 90h16M71 91h16M71 92h16M0 108h1M95 108h1M1 109h1M94 109h1M2 110h92M82 117h2M85 117h2M77 126h1M75 127h1M77 127h1M73 128h1M75 128h1M77 128h1M71 129h1M73 129h1M75 129h1M77 129h1M69 130h1M71 130h1M73 130h1M75 130h1M69 131h1M71 131h1M69 132h1M11 144h74M10 145h2M84 145h2M9 146h2M85 146h2M8 147h2M86 147h2M8 148h1M87 148h1M8 149h1M87 149h1M8 150h1M87 150h1M8 151h1M87 151h1M8 152h1M87 152h1M8 153h1M87 153h1M8 154h1M87 154h1M8 155h1M87 155h1M8 156h1M87 156h1M8 157h1M87 157h1M8 158h1M87 158h1M8 159h1M87 159h1M8 160h1M87 160h1M8 161h1M87 161h1M8 162h1M87 162h1M8 163h1M87 163h1M8 164h1M87 164h1M8 165h1M87 165h1M8 166h1M87 166h1M8 167h1M87 167h1M8 168h2M86 168h2M9 169h2M85 169h2M10 170h2M84 170h2M11 171h74" />
<path stroke="#d39ea6" d="M3 105h90M3 106h90M1 107h94M1 108h94M2 109h92M0 175h1M95 175h1M0 176h2M94 176h2M0 177h96M1 178h94" />
<path stroke="#b88a91" d="M3 111h90M3 112h90M3 113h79M87 113h6M3 114h79M87 114h6M3 115h79M87 115h6M3 116h79M87 116h6" />
<path stroke="#70445a" d="M82 113h5M82 114h5M82 115h5M82 116h5" />
<path stroke="#e8bec9" d="M0 116h1M95 116h1M0 117h3M93 117h3M0 118h3M93 118h3M1 119h2M93 119h2M1 120h2M93 120h2" />
<path stroke="#694455" d="M84 117h1M84 118h1M84 119h1M84 120h1M84 121h1M84 122h1M83 123h1M81 124h2M76 125h1M78 125h3M74 126h1M76 126h1M72 127h1M74 127h1M76 127h1M70 128h1M72 128h1M74 128h1M76 128h1M68 129h1M70 129h1M72 129h1M74 129h1M76 129h1M68 130h1M70 130h1M72 130h1M74 130h1M68 131h1M70 131h1M67 132h2M67 133h1M67 134h1M67 135h1M68 136h1M68 137h1" />
<path stroke="#744c7c" d="M0 119h1M95 119h1M0 120h1M95 120h1M1 121h83M85 121h10M0 178h1M95 178h1M1 179h94" />
<path stroke="#bf8ea4" d="M77 125h1M75 126h1M73 127h1M71 128h1M69 129h1M12 145h72M11 146h74M10 147h76M9 148h78M9 149h78M9 150h78M9 151h78M9 152h78M9 153h78M9 154h78M9 155h78M9 156h78M9 157h78M9 158h78M9 159h78M9 160h78M9 161h78M9 162h78M9 163h78M9 164h78M9 165h78M9 166h78M9 167h78M10 168h76M11 169h74M12 170h72" />
</svg>