<svg xmlns="http://www.w3.org/2000/svg" viewBox="0 -0.5 8 8" shape-rendering="crispEdges">
<metadata>Made with Pixels to Svg https://codepen.io/shshaw/pen/XbxvNj</metadata>
<path stroke="#222035" d="M2 0h4M1 1h1M6 1h1M0 2h1M7 2h1M0 3h1M7 3h1M0 4h1M7 4h1M0 5h1M7 5h1M1 6h1M6 6h1M2 7h4" />
<path stroke="#fbc23f" d="M2 1h1M1 2h2M5 2h1M1 3h1M3 3h2M6 3h1M1 4h1M3 4h2M6 4h1M2 5h1M5 5h2M5 6h1" />
<path stroke="#ffdf76" d="M3 1h3M6 2h1M5 3h1M5 4h1M3 5h2" />
<path stroke="#ea933a" d="M3 2h2M2 3h1M2 4h1M1 5h1M2 6h3" />
</svg>