<svg xmlns="http://www.w3.org/2000/svg" viewBox="0 -0.5 64 16" shape-rendering="crispEdges">
<metadata>Made with Pixels to Svg https://codepen.io/shshaw/pen/XbxvNj</metadata>
<path stroke="#5c0000" d="M0 0h9M55 0h9M1 1h1M9 1h2M53 1h2M62 1h1M2 2h1M11 2h1M52 2h1M61 2h1M3 3h1M12 3h1M51 3h1M60 3h1M4 4h1M13 4h1M50 4h1M59 4h1M4 5h1M14 5h1M49 5h1M59 5h1M3 6h1M15 6h34M60 6h1M2 7h1M61 7h1M1 8h1M62 8h1M0 9h9M55 9h9M9 10h1M54 10h1M10 11h1M53 11h1M11 12h1M52 12h1M12 13h1M51 13h1M13 14h1M50 14h1M14 15h36" />
<path stroke="#780000" d="M2 1h7M55 1h7M9 2h2M53 2h2M11 3h1M52 3h1M12 4h1M51 4h1M13 5h1M50 5h1M14 6h1M49 6h1" />
<path stroke="#940000" d="M3 2h1M60 2h1M4 3h1M59 3h1M5 4h1M58 4h1M5 5h1M58 5h1" />
<path stroke="#aa0000" d="M4 2h5M55 2h5M5 3h6M53 3h6M6 4h6M52 4h6M6 5h7M51 5h7M4 6h10M50 6h10M3 7h58M9 8h11M22 8h2M25 8h3M29 8h1M31 8h2M34 8h1M39 8h1M43 8h12M10 9h9M20 9h2M23 9h1M25 9h3M29 9h1M32 9h1M34 9h1M36 9h4M41 9h2M44 9h10M11 10h8M20 10h2M23 10h1M25 10h3M29 10h1M32 10h1M34 10h1M39 10h1M41 10h2M44 10h9M12 11h7M20 11h2M23 11h1M25 11h1M27 11h1M29 11h1M31 11h1M34 11h1M36 11h4M41 11h2M44 11h8M13 12h6M20 12h2M23 12h1M25 12h1M27 12h1M29 12h1M31 12h1M34 12h1M36 12h4M41 12h2M44 12h7M14 13h6M22 13h3M26 13h1M28 13h2M31 13h2M34 13h1M39 13h1M43 13h7M15 14h34" />
<path stroke="#bf0000" d="M2 8h7M55 8h7M9 9h1M54 9h1M10 10h1M53 10h1M11 11h1M52 11h1M12 12h1M51 12h1M13 13h1M50 13h1M14 14h1M49 14h1" />
<path stroke="#ffffff" d="M20 8h2M24 8h1M28 8h1M30 8h1M33 8h1M35 8h4M40 8h3M19 9h1M22 9h1M24 9h1M28 9h1M30 9h2M33 9h1M35 9h1M40 9h1M43 9h1M19 10h1M22 10h1M24 10h1M28 10h1M30 10h2M33 10h1M35 10h4M40 10h1M43 10h1M19 11h1M22 11h1M24 11h1M26 11h1M28 11h1M30 11h1M32 11h2M35 11h1M40 11h1M43 11h1M19 12h1M22 12h1M24 12h1M26 12h1M28 12h1M30 12h1M32 12h2M35 12h1M40 12h1M43 12h1M20 13h2M25 13h1M27 13h1M30 13h1M33 13h1M35 13h4M40 13h3" />
</svg>