<svg xmlns="http://www.w3.org/2000/svg" viewBox="0 -0.5 27 27" shape-rendering="crispEdges">
<metadata>Made with Pixels to Svg https://codepen.io/shshaw/pen/XbxvNj</metadata>
<path stroke="#543e2a" d="M19 0h3M18 1h1M22 1h1M18 2h1M22 2h1M17 3h1M23 3h2M16 4h1M25 4h1M16 5h1M25 5h1M15 6h1M26 6h1M14 7h1M26 7h1M26 8h1M24 9h2M23 10h1M10 11h1M22 11h1M9 12h1M21 12h1M7 13h2M20 13h1M6 14h1M5 15h1M2 16h3M1 17h1M0 18h1M0 19h1M0 20h1M13 20h1M0 21h1M12 21h1M1 22h1M11 22h1M2 23h1M10 23h1M3 24h1M9 24h1M4 25h1M8 25h1M5 26h3" />
<path stroke="#ffcb9d" d="M19 1h2M19 2h2M18 3h3M17 4h4M17 5h4M16 6h4M15 7h5M15 8h4M16 9h2M10 12h2M9 13h3M8 14h4M6 15h5M5 16h5M3 17h6M4 18h5M5 19h3M6 20h1" />
<path stroke="#d39b69" d="M21 1h1M21 2h1M21 6h1M25 6h1M21 7h1M25 7h1M20 8h1M24 8h2M19 9h1M22 9h2M18 10h1M22 10h1M21 11h1M20 12h1M15 15h1M14 16h1M13 17h2M12 18h2M11 19h3M10 20h3M9 21h3M8 22h3M9 23h1M5 25h1M7 25h1" />
<path stroke="#a27751" d="M21 3h2M21 4h1M21 5h1M20 6h1M20 7h1M19 8h1M18 9h1M17 10h1M18 11h1M19 12h1M14 14h1M13 15h2M12 16h2M11 17h2M10 18h2M9 19h2M3 20h2M8 20h2M3 21h2M7 21h2M3 22h2M6 22h2M4 23h5M5 24h4M6 25h1" />
<path stroke="#c08d5f" d="M22 4h1M22 5h1M2 19h2M2 20h1M2 21h1" />
<path stroke="#e8aa74" d="M23 4h2M23 5h2M22 6h3M22 7h3M21 8h3M20 9h2M19 10h3M19 11h2M12 13h2M7 14h1M12 14h2M11 15h2M10 16h2M2 17h1M9 17h2M1 18h3M9 18h1M1 19h1M4 19h1M8 19h1M1 20h1M5 20h1M7 20h1M1 21h1M5 21h2M2 22h1M5 22h1M3 23h1M4 24h1" />
<path stroke="#780000" d="M14 8h1M13 9h1M15 9h1M12 10h1M16 10h1M11 11h1M17 11h1M12 12h2M18 12h1M14 13h1M19 13h1M15 14h1M19 14h1M16 15h1M20 15h3M15 16h1M23 16h1M15 17h1M18 17h1M22 17h1M14 18h1M19 18h1M23 18h1M14 19h1M20 19h3M15 20h1M21 20h1M16 21h1M19 21h2M17 22h1M19 22h1M18 23h2" />
<path stroke="#bf0000" d="M14 9h1M13 10h3M12 11h5M14 12h4M15 13h4M16 14h3M17 15h1" />
<path stroke="#aa0000" d="M18 15h1M16 16h6M16 17h1M19 17h2M16 18h2M16 19h3M17 20h1" />
<path stroke="#940000" d="M19 15h1M22 16h1M17 17h1M21 17h1M15 18h1M18 18h1M20 18h3M15 19h1M19 19h1M16 20h1M18 20h3M17 21h2M18 22h1" />
</svg>