<svg xmlns="http://www.w3.org/2000/svg" viewBox="0 -0.5 27 27" shape-rendering="crispEdges">
<metadata>Made with Pixels to Svg https://codepen.io/shshaw/pen/XbxvNj</metadata>
<path stroke="#b33d0b" d="M12 0h3M11 1h1M15 1h1M10 2h1M16 2h1M10 3h1M17 3h1M8 4h1M11 4h1M18 4h1M7 5h1M9 5h1M12 5h3M19 5h1M6 6h1M10 6h1M15 6h1M20 6h1M5 7h1M10 7h1M16 7h1M21 7h1M4 8h1M10 8h1M16 8h1M22 8h1M3 9h1M11 9h1M16 9h1M23 9h1M2 10h1M12 10h1M14 10h1M17 10h1M19 10h1M24 10h1M1 11h1M12 11h1M14 11h2M18 11h1M20 11h1M25 11h1M0 12h1M12 12h1M14 12h1M16 12h1M21 12h1M26 12h1M0 13h1M12 13h1M14 13h1M16 13h1M21 13h1M26 13h1M0 14h1M12 14h1M14 14h1M16 14h1M21 14h1M26 14h1M1 15h1M12 15h1M14 15h1M17 15h1M20 15h1M25 15h1M2 16h1M12 16h1M14 16h1M18 16h2M24 16h1M3 17h1M11 17h1M15 17h1M23 17h1M4 18h1M10 18h1M16 18h1M22 18h1M5 19h1M10 19h1M16 19h1M21 19h1M6 20h1M11 20h1M15 20h1M20 20h1M7 21h1M12 21h3M19 21h1M8 22h1M18 22h1M9 23h1M17 23h1M10 24h1M16 24h1M11 25h1M15 25h1M12 26h3" />
<path stroke="#f3521e" d="M12 1h3M11 2h5M11 3h6M12 4h6M8 5h1M15 5h4M7 6h3M16 6h4M6 7h4M17 7h4M5 8h5M17 8h5M4 9h7M17 9h6M3 10h9M18 10h1M20 10h4M2 11h10M21 11h4M1 12h11M15 12h1M22 12h4M1 13h11M15 13h1M22 13h4M1 14h11M15 14h1M22 14h4M2 15h10M15 15h2M21 15h4M3 16h9M15 16h3M20 16h4M4 17h7M16 17h7M5 18h5M17 18h5M6 19h4M17 19h4M7 20h4M16 20h4M8 21h4M15 21h4M9 22h9M10 23h7M11 24h5M12 25h3" />
</svg>