<svg xmlns="http://www.w3.org/2000/svg" viewBox="0 -0.5 27 27" shape-rendering="crispEdges">
<metadata>Made with Pixels to Svg https://codepen.io/shshaw/pen/XbxvNj</metadata>
<path stroke="#3f87b6" d="M19 0h1" />
<path stroke="#56b4f4" d="M20 0h1" />
<path stroke="#3c88bc" d="M18 1h1" />
<path stroke="#3c85b5" d="M19 1h1" />
<path stroke="#54b3f4" d="M20 1h3" />
<path stroke="#3a88bd" d="M16 2h2" />
<path stroke="#3a88bc" d="M18 2h1" />
<path stroke="#3a83b5" d="M19 2h1" />
<path stroke="#52b3f3" d="M20 2h5" />
<path stroke="#3887bc" d="M15 3h3" />
<path stroke="#3887bb" d="M18 3h1" />
<path stroke="#3882b4" d="M19 3h1" />
<path stroke="#50b2f3" d="M20 3h7" />
<path stroke="#3585bb" d="M14 4h4" />
<path stroke="#3585ba" d="M18 4h1" />
<path stroke="#3580b3" d="M19 4h1" />
<path stroke="#4eb1f3" d="M20 4h7" />
<path stroke="#3384ba" d="M13 5h5" />
<path stroke="#3384b9" d="M18 5h1" />
<path stroke="#337fb2" d="M19 5h1" />
<path stroke="#4cb0f3" d="M20 5h7" />
<path stroke="#3183ba" d="M12 6h6" />
<path stroke="#3183b9" d="M18 6h1" />
<path stroke="#317eb1" d="M19 6h1" />
<path stroke="#4aaff3" d="M20 6h7" />
<path stroke="#2e92d5" d="M1 7h3" />
<path stroke="#2e81b9" d="M11 7h7" />
<path stroke="#2e81b8" d="M18 7h1" />
<path stroke="#2e7cb0" d="M19 7h1" />
<path stroke="#47aef3" d="M20 7h7" />
<path stroke="#2c91d5" d="M0 8h6" />
<path stroke="#2c80b8" d="M10 8h8" />
<path stroke="#2c80b7" d="M18 8h1" />
<path stroke="#46adf3" d="M20 8h7" />
<path stroke="#298fd4" d="M0 9h7" />
<path stroke="#297db6" d="M9 9h1" />
<path stroke="#297eb7" d="M10 9h7" />
<path stroke="#43acf2" d="M20 9h7" />
<path stroke="#278ed4" d="M1 10h7" />
<path stroke="#2774a8" d="M8 10h1" />
<path stroke="#2777ae" d="M9 10h1" />
<path stroke="#277bb3" d="M10 10h1" />
<path stroke="#277db6" d="M11 10h5" />
<path stroke="#41abf2" d="M20 10h7" />
<path stroke="#258dd3" d="M2 11h8" />
<path stroke="#2575ac" d="M10 11h1" />
<path stroke="#2579b1" d="M11 11h1" />
<path stroke="#257bb5" d="M12 11h3" />
<path stroke="#40aaf2" d="M20 11h7" />
<path stroke="#228cd3" d="M3 12h8" />
<path stroke="#2272a7" d="M11 12h1" />
<path stroke="#2276af" d="M12 12h1" />
<path stroke="#3da9f2" d="M20 12h7" />
<path stroke="#208bd2" d="M4 13h8" />
<path stroke="#3ba8f2" d="M20 13h7" />
<path stroke="#1e75b0" d="M3 14h1" />
<path stroke="#1e72a9" d="M4 14h1" />
<path stroke="#1e8ad2" d="M5 14h8" />
<path stroke="#39a8f2" d="M20 14h7" />
<path stroke="#1b75b2" d="M2 15h2" />
<path stroke="#1b74af" d="M4 15h1" />
<path stroke="#1b70a8" d="M5 15h1" />
<path stroke="#1b6ba0" d="M6 15h1" />
<path stroke="#1b88d1" d="M7 15h8" />
<path stroke="#37a6f2" d="M20 15h7" />
<path stroke="#1974b1" d="M1 16h4" />
<path stroke="#1972af" d="M5 16h1" />
<path stroke="#196fa9" d="M6 16h1" />
<path stroke="#196aa0" d="M7 16h1" />
<path stroke="#1987d1" d="M8 16h8" />
<path stroke="#35a6f1" d="M20 16h7" />
<path stroke="#1773b1" d="M0 17h6" />
<path stroke="#1772b0" d="M6 17h1" />
<path stroke="#1786d1" d="M9 17h8" />
<path stroke="#33a5f1" d="M20 17h7" />
<path stroke="#1471b0" d="M0 18h6" />
<path stroke="#1484d0" d="M10 18h8" />
<path stroke="#1484cf" d="M18 18h1" />
<path stroke="#31a4f1" d="M20 18h7" />
<path stroke="#1270af" d="M1 19h3" />
<path stroke="#1283d0" d="M11 19h7" />
<path stroke="#1283cf" d="M18 19h1" />
<path stroke="#127dc4" d="M19 19h1" />
<path stroke="#2fa3f1" d="M20 19h7" />
<path stroke="#0f82cf" d="M12 20h6" />
<path stroke="#0f82ce" d="M18 20h1" />
<path stroke="#0f7bc4" d="M19 20h1" />
<path stroke="#2ca2f1" d="M20 20h7" />
<path stroke="#0d81cf" d="M13 21h5" />
<path stroke="#0d81ce" d="M18 21h1" />
<path stroke="#0d7ac3" d="M19 21h1" />
<path stroke="#2aa1f1" d="M20 21h7" />
<path stroke="#0b80ce" d="M14 22h4" />
<path stroke="#0b80cd" d="M18 22h1" />
<path stroke="#0b79c3" d="M19 22h1" />
<path stroke="#29a0f1" d="M20 22h7" />
<path stroke="#087ece" d="M15 23h3" />
<path stroke="#087ecd" d="M18 23h1" />
<path stroke="#0877c2" d="M19 23h1" />
<path stroke="#269ff0" d="M20 23h7" />
<path stroke="#067dcd" d="M16 24h2" />
<path stroke="#067dcc" d="M18 24h1" />
<path stroke="#0676c1" d="M19 24h1" />
<path stroke="#249ef0" d="M20 24h5" />
<path stroke="#047bcb" d="M18 25h1" />
<path stroke="#0474c0" d="M19 25h1" />
<path stroke="#239ef0" d="M20 25h3" />
<path stroke="#0173bf" d="M19 26h1" />
<path stroke="#209cf0" d="M20 26h1" />
</svg>