<svg xmlns="http://www.w3.org/2000/svg" viewBox="0 -0.5 27 27" shape-rendering="crispEdges">
<metadata>Made with Pixels to Svg https://codepen.io/shshaw/pen/XbxvNj</metadata>
<path stroke="#270001" d="M12 0h2M11 1h1M14 1h2M9 2h2M16 2h2M7 3h2M18 3h2M5 4h2M20 4h2M3 5h2M22 5h2M2 6h1M24 6h2M2 7h2M26 7h1M4 8h2M25 8h2M6 9h2M23 9h2M26 9h1M2 10h1M8 10h2M21 10h2M26 10h1M3 11h2M10 11h2M19 11h2M26 11h1M5 12h2M12 12h2M17 12h2M25 12h2M7 13h2M14 13h3M23 13h2M9 14h2M21 14h2M11 15h2M19 15h2M13 16h1M17 16h2M14 17h3" />
<path stroke="#6b0005" d="M12 1h2M11 2h5M9 3h3M15 3h3M7 4h3M12 4h3M17 4h3M5 5h3M10 5h7M19 5h3M4 6h3M9 6h10M21 6h3M6 7h3M11 7h9M22 7h3M2 8h1M8 8h3M13 8h5M20 8h3M10 9h3M15 9h2M18 9h3M12 10h3M17 10h2M14 11h3" />
<path stroke="#450003" d="M12 3h3M10 4h2M15 4h2M8 5h2M17 5h2M3 6h1M7 6h2M19 6h2M4 7h2M9 7h2M20 7h2M25 7h1M6 8h2M11 8h2M18 8h2M23 8h2M2 9h1M8 9h2M13 9h2M17 9h1M21 9h2M10 10h2M15 10h2M19 10h2M12 11h2M17 11h2M14 12h3" />
<path stroke="#d3cfc3" d="M3 8h1M3 9h3M3 10h1M6 10h2M5 11h1M8 11h2M7 12h1M10 12h2M9 13h1M12 13h2M3 14h1M11 14h1M14 14h1M3 15h3M13 15h1M3 16h1M6 16h2M8 17h2M7 18h1M2 19h1M9 19h1M2 20h1M4 20h1M11 20h1M2 21h1M6 21h1M4 22h1M8 22h1M6 23h1M10 23h1M8 24h1M10 25h2" />
<path stroke="#8a8a8a" d="M25 9h1M23 10h1M25 10h1M21 11h2M25 11h1M19 12h2M23 12h2M17 13h1M22 13h1M25 13h1M15 14h2M19 14h2M23 14h2M17 15h2M21 15h2M25 15h1M14 16h3M19 16h2M17 17h2M14 18h3M24 18h2M22 19h1M25 19h1M12 20h3M20 20h1M24 20h1M18 21h1M22 21h1M16 22h1M20 22h1M14 23h1M18 23h1M16 24h1M12 25h3" />
<path stroke="#fff7de" d="M4 10h2M6 11h2M8 12h2M10 13h2M12 14h2M14 15h1M4 16h2M5 17h3M8 18h4M10 19h3M3 20h1M3 21h3M5 22h3M7 23h3M9 24h3" />
<path stroke="#bdbbb5" d="M24 10h1M23 11h2M21 12h2M18 13h4M17 14h2M25 14h1M15 15h2M23 15h2M21 16h3M19 17h3M17 18h2M13 19h4M23 19h2M21 20h3M19 21h3M17 22h3M15 23h3M12 24h4" />
<path stroke="#253710" d="M2 11h1M1 12h1M0 13h1M3 13h1M26 13h1M0 14h1M2 14h1M4 14h2M26 14h1M0 15h1M6 15h2M26 15h1M1 16h2M8 16h2M24 16h3M3 17h2M10 17h2M22 17h2M5 18h2M12 18h2M19 18h2M7 19h2M17 19h2M9 20h2M15 20h2M11 21h4" />
<path stroke="#486c1f" d="M2 12h3M1 13h1M5 13h2M1 14h1M7 14h2M1 15h1M9 15h2M11 16h2M13 17h1" />
<path stroke="#547e25" d="M2 13h1M4 13h1M6 14h1M2 15h1M8 15h1M10 16h1M12 17h1" />
<path stroke="#1d226f" d="M2 17h1M3 18h2M1 19h1M5 19h2M7 20h2M9 21h2" />
<path stroke="#131749" d="M24 17h1M21 18h1M19 19h1M17 20h1M15 21h1M11 22h3" />
<path stroke="#0b0d2b" d="M25 17h2M1 18h2M22 18h2M26 18h1M3 19h2M20 19h2M26 19h1M1 20h1M5 20h2M18 20h2M25 20h2M1 21h1M7 21h2M16 21h2M23 21h2M2 22h2M9 22h2M14 22h2M21 22h2M4 23h2M11 23h3M19 23h2M6 24h2M17 24h2M8 25h2M15 25h2M10 26h5" />
</svg>