<svg xmlns="http://www.w3.org/2000/svg" viewBox="0 -0.5 27 27" shape-rendering="crispEdges">
<metadata>Made with Pixels to Svg https://codepen.io/shshaw/pen/XbxvNj</metadata>
<path stroke="#8b9bb5" d="M9 2h8M8 3h8M7 4h8M6 5h8M5 6h8M4 7h8M3 8h8M2 9h8M1 10h8M0 11h8M0 12h7M4 14h1M8 14h1M4 15h1M8 15h1M4 16h1M8 16h1M4 17h1M8 17h1M4 18h1M8 18h1M4 19h1M8 19h1M4 20h1M8 20h1M2 21h7M1 22h8M0 23h9" />
<path stroke="#d2daf1" d="M17 2h1M16 3h3M15 4h2M18 4h2M14 5h2M19 5h2M13 6h2M20 6h2M12 7h2M21 7h2M11 8h2M22 8h2M10 9h2M23 9h2M9 10h2M24 10h2M8 11h2M25 11h2M7 12h20" />
<path stroke="#7e8b9e" d="M17 4h1M18 5h1M19 6h1M20 7h1M21 8h1M22 9h1M23 10h1M24 11h1" />
<path stroke="#bdc9d9" d="M16 5h2M15 6h4M14 7h2M18 7h2M13 8h3M18 8h3M12 9h10M11 10h12M10 11h14M12 14h2M17 14h1M21 14h2M12 15h2M17 15h1M21 15h2M12 16h2M17 16h1M21 16h2M12 17h2M17 17h1M21 17h2M12 18h2M17 18h1M21 18h2M12 19h2M17 19h1M21 19h2M12 20h2M17 20h1M21 20h2M10 21h15M10 22h16M10 23h17" />
<path stroke="#53617e" d="M16 7h2M16 8h2M10 13h1M14 13h2M18 13h2M5 14h2M9 14h1M5 15h2M9 15h1M5 16h2M9 16h1M5 17h2M9 17h1M5 18h2M9 18h1M5 19h2M9 19h1M5 20h2M9 20h1M10 24h17" />
<path stroke="#48546c" d="M3 13h7M0 24h9" />
<path stroke="#8996a9" d="M11 13h3M16 13h2M20 13h3" />
<path stroke="#607391" d="M3 14h1M7 14h1M3 15h1M7 15h1M3 16h1M7 16h1M3 17h1M7 17h1M3 18h1M7 18h1M3 19h1M7 19h1M3 20h1M7 20h1" />
<path stroke="#5b6888" d="M10 14h1M14 14h2M18 14h2M10 15h1M14 15h2M18 15h2M10 16h1M14 16h2M18 16h2M10 17h1M14 17h2M18 17h2M10 18h1M14 18h2M18 18h2M10 19h1M14 19h2M18 19h2M10 20h1M14 20h2M18 20h2" />
<path stroke="#7a8aa4" d="M11 14h1M16 14h1M20 14h1M11 15h1M16 15h1M20 15h1M11 16h1M16 16h1M20 16h1M11 17h1M16 17h1M20 17h1M11 18h1M16 18h1M20 18h1M11 19h1M16 19h1M20 19h1M11 20h1M16 20h1M20 20h1" />
<path stroke="#9ca8be" d="M9 21h1M9 22h1M9 23h1" />
<path stroke="#4d586e" d="M9 24h1" />
</svg>