<svg xmlns="http://www.w3.org/2000/svg" viewBox="0 -0.5 27 27" shape-rendering="crispEdges">
<metadata>Made with Pixels to Svg https://codepen.io/shshaw/pen/XbxvNj</metadata>
<path stroke="#7dbe61" d="M2 0h20M1 1h1M0 2h1M25 4h1M24 5h1M23 6h1M22 7h1M21 8h1M20 9h1M19 10h1M18 11h1M17 12h1M16 13h1M15 14h1M14 15h1M13 16h1M4 17h1M12 17h1M5 18h1M11 18h1M6 19h1M10 19h1M7 20h1M9 20h1M8 21h1M0 24h1M26 24h1M1 25h1M25 25h1M2 26h1M24 26h1" />
<path stroke="#508538" d="M22 0h1M3 1h19M2 2h1M25 2h1M1 3h1M24 3h1M26 3h1M1 4h1M23 4h1M26 4h1M1 5h1M22 5h1M25 5h1M1 6h1M21 6h1M24 6h1M1 7h1M20 7h1M23 7h1M1 8h1M19 8h1M22 8h1M1 9h1M18 9h1M21 9h1M26 9h1M1 10h1M17 10h1M20 10h1M25 10h1M1 11h1M16 11h1M19 11h1M25 11h1M1 12h1M15 12h1M18 12h1M25 12h1M1 13h1M14 13h1M17 13h1M25 13h1M1 14h1M13 14h1M16 14h1M25 14h1M1 15h1M4 15h1M12 15h1M15 15h1M25 15h1M1 16h1M3 16h1M5 16h1M11 16h1M14 16h1M25 16h1M1 17h1M3 17h1M6 17h1M10 17h1M13 17h1M25 17h1M1 18h1M4 18h1M7 18h1M9 18h1M12 18h1M25 18h1M1 19h1M5 19h1M8 19h1M11 19h1M25 19h1M1 20h1M6 20h1M10 20h1M25 20h1M1 21h1M7 21h1M9 21h1M25 21h1M1 22h1M8 22h1M25 22h1M1 23h1M25 23h1M2 24h1M24 24h1M3 25h21" />
<path stroke="#68ad48" d="M2 1h1M1 2h1M0 3h1M25 3h1M0 4h1M24 4h1M0 5h1M23 5h1M0 6h1M22 6h1M0 7h1M21 7h1M0 8h1M20 8h1M0 9h1M19 9h1M0 10h1M18 10h1M26 10h1M0 11h1M17 11h1M26 11h1M0 12h1M16 12h1M26 12h1M0 13h1M15 13h1M26 13h1M0 14h1M14 14h1M26 14h1M0 15h1M13 15h1M26 15h1M0 16h1M4 16h1M12 16h1M26 16h1M0 17h1M5 17h1M11 17h1M26 17h1M0 18h1M6 18h1M10 18h1M26 18h1M0 19h1M7 19h1M9 19h1M26 19h1M0 20h1M8 20h1M26 20h1M0 21h1M26 21h1M0 22h1M26 22h1M0 23h1M26 23h1M1 24h1M25 24h1M2 25h1M24 25h1M3 26h21" />
</svg>