<svg xmlns="http://www.w3.org/2000/svg" viewBox="0 -0.5 27 27" shape-rendering="crispEdges">
<metadata>Made with Pixels to Svg https://codepen.io/shshaw/pen/XbxvNj</metadata>
<path stroke="#516085" d="M2 0h5M2 1h5M2 2h5M2 3h5M1 4h6M1 5h6M0 6h7M0 7h7M2 8h5M0 9h7M2 10h5M0 11h7M2 12h5M0 13h7M2 14h5M0 15h7M1 16h6M2 17h6" />
<path stroke="#c9d8ec" d="M7 0h19M7 1h1M25 1h1M7 2h1M25 2h1M7 3h1M25 3h1M7 4h1M25 4h1M7 5h1M25 5h1M7 6h1M25 6h1M7 7h1M25 7h1M7 8h1M25 8h1M7 9h1M25 9h1M7 10h1M25 10h1M7 11h1M25 11h1M7 12h1M25 12h1M7 13h1M25 13h1M7 14h1M25 14h1M7 15h1M25 15h1M7 16h19M6 18h21M6 19h21M6 20h4M11 20h1M13 20h5M25 20h2M6 21h3M10 21h1M12 21h1M14 21h4M25 21h2M6 22h4M11 22h1M13 22h14M6 23h3M10 23h1M12 23h1M14 23h6M23 23h4M6 24h4M11 24h1M13 24h5M25 24h2M6 25h14M23 25h4M6 26h21" />
<path stroke="#eefef9" d="M8 1h1M8 2h1M8 3h1M8 4h1M8 5h1M8 6h1M8 7h1M8 8h1M8 9h1M8 10h1M8 11h1M8 12h1M8 13h1M8 14h1M8 15h1" />
<path stroke="#8d9cc1" d="M9 1h16M23 2h2M24 3h1M24 4h1M24 5h1M24 6h1M24 7h1M24 8h1M24 9h1M24 10h1M24 11h1M24 12h1M24 13h1M24 14h1M23 15h2" />
<path stroke="#3a3a5e" d="M9 2h14M9 3h1M12 3h1M14 3h1M18 3h1M20 3h1M22 3h2M9 4h15M9 5h1M13 5h1M16 5h1M20 5h4M9 6h15M9 7h1M11 7h1M16 7h1M18 7h1M21 7h1M23 7h1M9 8h15M9 9h1M13 9h1M15 9h9M9 10h15M9 11h15M9 12h15M9 13h1M14 13h1M17 13h2M21 13h1M23 13h1M9 14h15M9 15h14" />
<path stroke="#7dbe61" d="M10 3h2M13 3h1M15 3h3M19 3h1M21 3h1M10 5h3M14 5h2M17 5h3M10 7h1M12 7h4M17 7h1M19 7h2M22 7h1M10 9h3M14 9h1M10 13h4M15 13h2M19 13h2M22 13h1" />
<path stroke="#393a5f" d="M0 8h2M0 10h2M0 12h2M0 14h2" />
<path stroke="#8c9cae" d="M8 17h16M10 20h1M12 20h1M18 20h7M9 21h1M11 21h1M13 21h1M18 21h7M10 22h1M12 22h1M9 23h1M11 23h1M13 23h1M20 23h3M10 24h1M12 24h1M18 24h7M20 25h3" />
<path stroke="#3e4d71" d="M0 18h6M0 19h6M0 20h6M0 21h6M0 22h6M0 23h6M0 24h6M0 25h6M0 26h6" />
</svg>