<svg xmlns="http://www.w3.org/2000/svg" viewBox="0 -0.5 27 27" shape-rendering="crispEdges">
<metadata>Made with Pixels to Svg https://codepen.io/shshaw/pen/XbxvNj</metadata>
<path stroke="#c8926c" d="M7 3h1" />
<path stroke="#c8946c" d="M8 3h1" />
<path stroke="#c7a285" d="M9 3h4" />
<path stroke="#c7936b" d="M6 4h1M5 16h1M5 17h1" />
<path stroke="#c9956d" d="M7 4h1" />
<path stroke="#eabf9c" d="M8 4h1M7 5h1M7 6h1M4 14h1" />
<path stroke="#e8d0be" d="M9 4h5M8 5h6M8 6h1M10 6h1M8 7h1M10 7h1M7 8h4M7 9h1M9 10h2M5 15h1M6 16h3M12 16h2M8 17h2M11 17h2" />
<path stroke="#c8936b" d="M6 5h1M6 6h1" />
<path stroke="#1d1a23" d="M9 6h1M9 7h1" />
<path stroke="#454545" d="M11 6h1M11 7h1M11 8h1M11 9h1M11 10h1M11 11h1M11 12h1M11 13h1M11 14h1M16 15h4M16 16h4M14 17h1" />
<path stroke="#5e5e5e" d="M12 6h13M12 7h4M18 7h2M21 7h4M12 8h13M12 9h13M13 10h8M22 10h3M12 11h9M22 11h3M12 12h10M23 12h2M12 13h9M24 13h1M12 14h9M22 14h1M24 14h1M20 17h1" />
<path stroke="#a87958" d="M5 7h1" />
<path stroke="#c79067" d="M6 7h1" />
<path stroke="#ebbf9a" d="M7 7h1" />
<path stroke="#5f5f5d" d="M16 7h2" />
<path stroke="#5f5f5f" d="M20 7h1M12 10h1M21 10h1M21 11h1" />
<path stroke="#613223" d="M5 8h1" />
<path stroke="#773e2a" d="M6 8h1" />
<path stroke="#79412a" d="M6 9h1M6 10h1M8 24h1M14 24h2M8 25h4M14 25h4" />
<path stroke="#9c5336" d="M8 9h3M7 10h1M6 11h1M6 12h1M6 13h2M7 14h4" />
<path stroke="#b5613f" d="M8 10h1M7 11h4M7 12h4M8 13h3" />
<path stroke="#3a9550" d="M5 12h1M4 13h2M12 19h2" />
<path stroke="#5e5e5c" d="M22 12h1M18 17h1" />
<path stroke="#444645" d="M21 13h1M23 13h1" />
<path stroke="#5b5d5c" d="M22 13h1" />
<path stroke="#4ea95a" d="M5 14h1M10 15h2M11 16h1" />
<path stroke="#51aa5a" d="M6 14h1" />
<path stroke="#2d282f" d="M21 14h1M23 14h1M23 15h1M23 16h1M23 17h1M23 18h1M23 19h1M23 20h1M23 21h1M23 22h1M23 23h1M12 24h1M23 24h1M13 25h1M21 25h6" />
<path stroke="#c8946d" d="M4 15h1" />
<path stroke="#51a859" d="M6 15h3" />
<path stroke="#d08a34" d="M9 15h1M9 16h2M10 17h1" />
<path stroke="#4faa5a" d="M12 15h1" />
<path stroke="#cb925b" d="M13 15h2M14 16h1M13 17h1" />
<path stroke="#2b282f" d="M21 15h1M21 19h1M21 20h1M21 21h1M21 22h1M21 23h1" />
<path stroke="#29282e" d="M21 16h1M21 17h1" />
<path stroke="#c7936e" d="M6 17h1" />
<path stroke="#c7936c" d="M7 17h1" />
<path stroke="#5f5f61" d="M15 17h1" />
<path stroke="#5e5e60" d="M16 17h2M19 17h1" />
<path stroke="#532a28" d="M0 18h1" />
<path stroke="#522a28" d="M1 18h1M16 18h5M25 18h1" />
<path stroke="#522a2a" d="M2 18h2M15 18h1" />
<path stroke="#512929" d="M4 18h1M12 18h1" />
<path stroke="#522c2b" d="M5 18h1M13 18h1" />
<path stroke="#512b2a" d="M6 18h1M8 18h1M11 18h1" />
<path stroke="#502a29" d="M7 18h1M9 18h2" />
<path stroke="#522d27" d="M14 18h1" />
<path stroke="#2a292f" d="M21 18h1" />
<path stroke="#512927" d="M22 18h1" />
<path stroke="#542b27" d="M24 18h1" />
<path stroke="#512522" d="M26 18h1" />
<path stroke="#38202e" d="M1 19h1M25 19h1M1 20h1M25 20h1M1 21h1M25 21h1M1 22h1M25 22h1M1 23h1M25 23h1M1 24h1M25 24h1M1 25h1" />
<path stroke="#242329" d="M5 19h1M5 21h3M12 21h2M6 24h2M5 25h1" />
<path stroke="#3a984e" d="M6 19h1" />
<path stroke="#4ead5b" d="M7 19h1" />
<path stroke="#4dac5a" d="M8 19h1M11 19h1" />
<path stroke="#4cab59" d="M9 19h2" />
<path stroke="#892428" d="M14 19h1M13 20h2M14 21h2M14 22h1M14 23h1" />
<path stroke="#35954d" d="M6 20h1" />
<path stroke="#65121c" d="M7 20h1M8 21h1M16 22h1M16 23h2" />
<path stroke="#ac3b2d" d="M8 20h3M15 20h1M11 21h1M16 21h1" />
<path stroke="#882829" d="M11 20h1" />
<path stroke="#892629" d="M12 20h1" />
<path stroke="#882a2b" d="M9 21h2" />
<path stroke="#68071b" d="M8 22h1M8 23h1" />
<path stroke="#8b2227" d="M9 22h2M9 23h2" />
<path stroke="#6a0219" d="M11 22h1M11 23h1" />
<path stroke="#872927" d="M15 22h1M15 23h1" />
<path stroke="#78422a" d="M9 24h2" />
<path stroke="#a7654b" d="M11 24h1M12 25h1" />
<path stroke="#a56349" d="M16 24h2M18 25h1" />
<path stroke="#2c2630" d="M21 24h1" />
</svg>