<svg xmlns="http://www.w3.org/2000/svg" viewBox="0 -0.5 32 32" shape-rendering="crispEdges">
<metadata>Made with Pixels to Svg https://codepen.io/shshaw/pen/XbxvNj</metadata>
<path stroke="#545454" d="M21 3h3M20 4h1M24 4h1M20 5h1M24 5h1M19 6h1M25 6h2M18 7h1M27 7h1M18 8h1M27 8h1M17 9h1M28 9h1M16 10h1M28 10h1M28 11h1M26 12h2M25 13h1M12 14h1M24 14h1M11 15h1M23 15h1M9 16h2M22 16h1M8 17h1M7 18h1M4 19h3M3 20h1M2 21h1M2 22h1M2 23h1M15 23h1M2 24h1M14 24h1M3 25h1M13 25h1M4 26h1M12 26h1M5 27h1M11 27h1M6 28h1M10 28h1M7 29h3" />
<path stroke="#ffffff" d="M21 4h2M21 5h2M20 6h3M19 7h4M19 8h4M18 9h4M17 10h5M17 11h4M18 12h2M12 15h2M11 16h3M10 17h4M8 18h5M7 19h5M5 20h6M6 21h5M7 22h3M8 23h1" />
<path stroke="#c7c7c7" d="M23 4h1M23 5h1M25 7h2M25 8h2M24 9h3M24 10h3M23 11h3M22 12h2M21 13h3M21 14h2M14 16h2M9 17h1M14 17h2M13 18h2M12 19h2M4 20h1M11 20h2M3 21h3M11 21h1M3 22h1M6 22h1M10 22h1M3 23h1M7 23h1M9 23h1M3 24h1M7 24h2M4 25h1M7 25h1M5 26h1M6 27h1" />
<path stroke="#757575" d="M23 6h2M23 7h1M23 8h1M22 9h1M22 10h1M21 11h1M20 12h1M19 13h1M20 14h1M21 15h1M16 17h1M15 18h2M14 19h2M13 20h2M12 21h2M11 22h2M5 23h2M10 23h2M5 24h2M9 24h2M5 25h2M8 25h2M6 26h5M7 27h4M8 28h1" />
<path stroke="#a1a1a1" d="M24 7h1M24 8h1M23 9h1M27 9h1M23 10h1M27 10h1M22 11h1M26 11h2M21 12h1M24 12h2M20 13h1M24 13h1M23 14h1M22 15h1M17 18h1M16 19h1M15 20h2M14 21h2M13 22h3M12 23h3M11 24h3M10 25h3M11 26h1M7 28h1M9 28h1" />
<path stroke="#780000" d="M16 11h1M15 12h1M17 12h1M14 13h1M18 13h1M13 14h1M19 14h1M14 15h2M20 15h1M16 16h1M21 16h1M17 17h1M21 17h1M18 18h1M22 18h3M17 19h1M25 19h1M17 20h1M20 20h1M24 20h1M16 21h1M21 21h1M25 21h1M16 22h1M22 22h3M17 23h1M23 23h1M18 24h1M21 24h2M19 25h1M21 25h1M20 26h2" />
<path stroke="#bf0000" d="M16 12h1M15 13h3M14 14h5M16 15h4M17 16h4M18 17h3M19 18h1" />
<path stroke="#aa0000" d="M20 18h1M18 19h6M18 20h1M21 20h2M18 21h2M18 22h3M19 23h1" />
<path stroke="#940000" d="M21 18h1M24 19h1M19 20h1M23 20h1M17 21h1M20 21h1M22 21h3M17 22h1M21 22h1M18 23h1M20 23h3M19 24h2M20 25h1" />
<path stroke="#878787" d="M4 22h2M4 23h1M4 24h1" />
</svg>