<svg xmlns="http://www.w3.org/2000/svg" viewBox="0 -0.5 32 32" shape-rendering="crispEdges">
<metadata>Made with Pixels to Svg https://codepen.io/shshaw/pen/XbxvNj</metadata>
<path stroke="#00599e" d="M14 4h2M13 5h1M16 5h1M11 6h3M16 6h3M10 7h1M13 7h1M16 7h1M19 7h1M10 8h1M13 8h1M16 8h1M19 8h1M10 9h1M13 9h1M16 9h1M19 9h3M10 10h1M13 10h1M16 10h1M19 10h1M22 10h1M10 11h1M13 11h1M16 11h1M19 11h1M22 11h1M10 12h1M13 12h1M16 12h1M19 12h1M22 12h1M10 13h1M13 13h1M16 13h1M19 13h1M22 13h1M10 14h1M13 14h1M16 14h1M19 14h1M22 14h1M7 15h2M10 15h1M19 15h1M22 15h1M6 16h1M9 16h2M22 16h1M6 17h1M10 17h1M22 17h1M7 18h1M10 18h1M22 18h1M8 19h1M22 19h1M8 20h1M22 20h1M9 21h1M22 21h1M9 22h1M21 22h1M10 23h1M21 23h1M10 24h1M21 24h1M10 25h1M21 25h1M11 26h1M20 26h1M11 27h1M20 27h1M11 28h10" />
<path stroke="#ffffff" d="M14 5h2M14 6h2M11 7h2M14 7h2M17 7h2M11 8h2M14 8h2M17 8h2M11 9h2M14 9h2M17 9h2M11 10h2M14 10h2M17 10h2M20 10h1M11 11h2M14 11h2M17 11h2M20 11h1M11 12h2M14 12h2M17 12h2M20 12h1M11 13h2M14 13h2M17 13h2M20 13h1M11 14h2M14 14h2M17 14h2M20 14h1M11 15h2M14 15h2M17 15h2M20 15h1M7 16h1M11 16h8M20 16h1M8 17h2M11 17h10M8 18h2M11 18h10M9 19h12M10 20h11M10 21h10M11 22h9M11 23h9M11 24h8M12 25h6M12 26h3" />
<path stroke="#00deff" d="M21 10h1M21 11h1M21 12h1M21 13h1M21 14h1M13 15h1M16 15h1M21 15h1M8 16h1M19 16h1M21 16h1M7 17h1M21 17h1M21 18h1M21 19h1M9 20h1M21 20h1M20 21h2M10 22h1M20 22h1M20 23h1M19 24h2M11 25h1M18 25h3M15 26h5M12 27h8" />
</svg>