<svg xmlns="http://www.w3.org/2000/svg" viewBox="0 -0.5 32 32" shape-rendering="crispEdges">
<metadata>Made with Pixels to Svg https://codepen.io/shshaw/pen/XbxvNj</metadata>
<path stroke="#f01700" d="M7 3h18M5 4h2M25 4h1M4 5h1M26 5h1M3 6h2M26 6h2M2 7h1M28 7h1M2 8h1M28 8h1M1 9h1M29 9h1M1 10h1M29 10h1M1 11h1M29 11h1M1 12h1M29 12h1M1 13h1M29 13h1M1 14h1M29 14h1M1 15h1M29 15h1M1 16h1M29 16h1M1 17h1M29 17h1M1 18h1M29 18h1M1 19h1M29 19h1M1 20h1M29 20h1M1 21h1M29 21h1M1 22h1M29 22h1M1 23h1M29 23h1M1 24h1M29 24h1M1 25h1M29 25h1M1 26h1M29 26h1M1 27h1M29 27h1M2 28h1M28 28h1M3 29h1M27 29h1M4 30h23" />
<path stroke="#5e4440" d="M7 4h1M23 4h2M5 5h2M25 5h1M5 6h2M25 6h1M5 7h2M25 7h1M5 8h2M25 8h1M5 9h2M25 9h1M5 10h2M25 10h1M5 11h2M25 11h1M5 12h2M25 12h1M5 13h2M25 13h1M5 14h2M25 14h1M5 15h2M25 15h1M5 16h2M25 16h1M5 17h2M25 17h1M5 18h2M25 18h1M5 19h2M25 19h1M5 20h2M25 20h1M5 21h2M25 21h1M7 22h18M5 23h2M8 23h15M25 23h1M7 24h18" />
<path stroke="#4f3532" d="M8 4h15M4 7h1M26 7h1M4 8h1M26 8h1M4 9h1M26 9h1M4 10h1M26 10h1M4 11h1M26 11h1M4 12h1M26 12h1M4 13h1M26 13h1M4 14h1M26 14h1M4 15h1M26 15h1M4 16h1M26 16h1M4 17h1M26 17h1M4 18h1M26 18h1M4 19h1M26 19h1M4 20h1M26 20h1M4 21h1M7 21h1M23 21h2M26 21h1M4 22h3M25 22h2M4 23h1M7 23h1M23 23h2M26 23h1M4 24h3M25 24h2M4 25h23M4 26h23M5 27h21" />
<path stroke="#6e5755" d="M7 5h18M7 6h18M7 7h4M15 7h2M21 7h4M7 8h4M15 8h2M21 8h4M7 9h4M15 9h1M21 9h4M7 10h4M20 10h5M7 11h4M19 11h6M7 12h4M18 12h7M7 13h4M18 13h7M7 14h4M19 14h6M7 15h4M20 15h5M7 16h4M15 16h1M21 16h4M7 17h4M15 17h2M21 17h4M7 18h4M15 18h2M21 18h4M7 19h18M8 20h15" />
<path stroke="#432d2a" d="M3 7h1M27 7h1M3 8h1M27 8h1M3 9h1M27 9h1M3 10h1M27 10h1M3 11h1M27 11h1M3 12h1M27 12h1M3 13h1M27 13h1M3 14h1M27 14h1M3 15h1M27 15h1M3 16h1M27 16h1M3 17h1M27 17h1M3 18h1M27 18h1M3 19h1M27 19h1M3 20h1M27 20h1M3 21h1M27 21h1M3 22h1M27 22h1M3 23h1M27 23h1M3 24h1M27 24h1M3 25h1M27 25h1M3 26h1M27 26h1M3 27h2M26 27h2M4 28h23" />
<path stroke="#0a0508" d="M11 7h4M17 7h4M11 8h4M17 8h4M2 9h1M11 9h4M16 9h5M28 9h1M2 10h1M11 10h9M28 10h1M2 11h1M11 11h8M28 11h1M2 12h1M11 12h7M28 12h1M2 13h1M11 13h7M28 13h1M2 14h1M11 14h8M28 14h1M2 15h1M11 15h9M28 15h1M2 16h1M11 16h4M16 16h5M28 16h1M2 17h1M11 17h4M17 17h4M28 17h1M2 18h1M11 18h4M17 18h4M28 18h1M2 19h1M28 19h1M2 20h1M28 20h1M2 21h1M28 21h1M2 22h1M28 22h1M2 23h1M28 23h1M2 24h1M28 24h1M2 25h1M28 25h1M2 26h1M28 26h1M2 27h1M28 27h1M3 28h1M27 28h1M4 29h23" />
<path stroke="#806a67" d="M7 20h1M23 20h2M8 21h15" />
</svg>