<svg xmlns="http://www.w3.org/2000/svg" viewBox="0 -0.5 32 32" shape-rendering="crispEdges">
<metadata>Made with Pixels to Svg https://codepen.io/shshaw/pen/XbxvNj</metadata>
<path stroke="#4d2a23" d="M4 3h24M4 4h1M27 4h1M4 5h1M11 5h2M17 5h2M21 5h2M27 5h1M4 6h1M11 6h1M16 6h1M20 6h1M22 6h1M25 6h1M27 6h1M3 7h1M11 7h3M15 7h4M20 7h3M24 7h2M27 7h1M3 8h1M11 8h1M15 8h1M18 8h1M22 8h4M27 8h1M2 9h1M11 9h15M27 9h1M2 10h1M11 10h1M13 10h1M18 10h1M20 10h1M23 10h1M25 10h1M27 10h1M2 11h2M11 11h15M27 11h1M2 12h1M11 12h1M15 12h1M17 12h9M27 12h1M2 13h2M11 13h15M27 13h1M2 14h1M11 14h15M27 14h1M2 15h2M11 15h15M27 15h1M2 16h1M11 16h1M16 16h1M19 16h2M23 16h1M25 16h1M27 16h1M2 17h2M11 17h15M27 17h1M2 18h1M11 18h14M27 18h1M3 19h1M26 19h2M4 20h1M25 20h1M2 21h2M26 21h3M2 22h1M28 22h1M2 23h1M12 23h1M14 23h1M20 23h7M28 23h1M2 24h1M11 24h1M13 24h1M15 24h1M20 24h7M28 24h1M2 25h1M12 25h1M14 25h1M28 25h1M2 26h1M11 26h1M13 26h1M15 26h1M22 26h3M28 26h1M2 27h1M12 27h1M14 27h1M20 27h7M28 27h1M2 28h1M22 28h3M28 28h1M2 29h2M6 29h3M10 29h4M16 29h6M25 29h2M28 29h1M4 30h1M6 30h1M9 30h1M13 30h1M15 30h1M22 30h1M24 30h1M27 30h1M5 31h1M14 31h1M23 31h1" />
<path stroke="#6b7d4d" d="M5 4h4M5 5h4M5 6h4M4 7h5M4 8h5M3 9h6M3 10h6M4 11h5M3 12h6M4 13h5M3 14h6M4 15h5M3 16h6M4 17h5M3 18h6M4 19h5M5 20h5M5 21h2M5 22h1" />
<path stroke="#829470" d="M9 4h1M9 5h1M9 6h1M9 7h1M9 8h1M9 9h1M9 10h1M9 11h1M9 12h1M9 13h1M9 14h1M9 15h1M9 16h1M9 17h1M9 18h1M9 19h17M11 20h2M14 20h2M21 20h1M4 21h1M7 21h1M11 21h2M3 22h2M6 22h2M11 22h1M3 23h5M3 24h5M3 25h5M3 26h5M3 27h5M3 28h5M4 29h2M5 30h1" />
<path stroke="#a8bf91" d="M10 4h1M10 5h1M10 6h1M10 7h1M10 8h1M10 9h1M10 10h1M10 11h1M10 12h1M10 13h1M10 14h1M10 15h1M10 16h1M10 17h1M10 18h1M8 21h3M13 21h1M17 21h3M22 21h4M8 22h3M12 22h3M16 22h5M22 22h6M8 23h4M13 23h1M16 23h4M27 23h1M8 24h3M12 24h1M14 24h1M16 24h4M27 24h1M8 25h4M13 25h1M15 25h13M8 26h3M12 26h1M14 26h1M16 26h6M25 26h3M8 27h4M13 27h1M15 27h5M27 27h1M8 28h14M25 28h3M9 29h1M14 29h2M22 29h3M27 29h1M14 30h1M23 30h1" />
<path stroke="#8a8f38" d="M11 4h16M13 5h4M19 5h2M23 5h4M14 6h2M19 6h1M23 6h2M26 6h1M14 7h1M19 7h1M23 7h1M26 7h1M19 8h1M26 8h1M26 9h1M26 10h1M26 11h1M26 12h1M26 13h1M26 14h1M26 15h1M26 16h1M26 17h1M25 18h2M10 20h1M13 20h1M16 20h5M22 20h3M14 21h3M20 21h2M15 22h1M21 22h1M15 23h1" />
<path stroke="#ffffff" d="M12 6h2M17 6h2M21 6h1M12 8h3M16 8h2M20 8h2M12 10h1M14 10h4M19 10h1M21 10h2M24 10h1M12 12h3M16 12h1M12 16h4M17 16h2M21 16h2M24 16h1" />
</svg>