<svg xmlns="http://www.w3.org/2000/svg" viewBox="0 -0.5 27 27" shape-rendering="crispEdges">
<metadata>Made with Pixels to Svg https://codepen.io/shshaw/pen/XbxvNj</metadata>
<path stroke="#6a220f" d="M19 0h2M18 1h1M21 1h2M16 2h2M23 2h2M15 3h1M25 3h2M14 4h1M26 4h1M13 5h1M26 5h1M12 6h1M26 6h1M1 7h3M11 7h1M19 7h1M26 7h1M0 8h1M4 8h2M10 8h1M17 8h2M20 8h1M26 8h1M0 9h1M6 9h1M9 9h1M16 9h1M20 9h1M26 9h1M1 10h1M7 10h2M15 10h1M20 10h1M26 10h1M2 11h1M8 11h2M13 11h2M20 11h1M26 11h1M3 12h1M10 12h1M12 12h1M20 12h1M26 12h1M4 13h1M11 13h1M20 13h1M26 13h1M3 14h1M5 14h2M12 14h1M20 14h1M26 14h1M2 15h1M7 15h1M13 15h2M20 15h1M26 15h1M1 16h1M7 16h2M15 16h1M20 16h1M26 16h1M0 17h1M6 17h1M9 17h1M16 17h1M20 17h1M26 17h1M0 18h1M4 18h2M10 18h1M17 18h2M20 18h1M26 18h1M1 19h3M11 19h1M19 19h1M26 19h1M12 20h1M26 20h1M13 21h1M26 21h1M14 22h1M26 22h1M15 23h1M25 23h2M16 24h2M23 24h2M18 25h1M21 25h2M19 26h2" />
<path stroke="#ccb645" d="M19 1h1M18 2h2M16 3h4M15 4h5M14 5h6M13 6h7M12 7h7M1 8h3M11 8h6M1 9h5M11 9h5M2 10h5M12 10h3M3 11h5M4 12h6M5 13h6M7 14h5M8 15h5M2 16h2M9 16h6M1 17h4M10 17h6M1 18h3M11 18h6M12 19h7M13 20h7M14 21h6M15 22h5M16 23h4M18 24h2M19 25h1" />
<path stroke="#e9d673" d="M20 1h1M20 2h3M20 3h5M20 4h6M20 5h6M20 6h6M20 7h6M21 8h5M21 9h5M21 10h5M21 11h5M21 12h5M21 13h5M21 14h5M21 15h5M21 16h5M21 17h5M21 18h5M20 19h6M20 20h6M20 21h6M20 22h6M20 23h5M20 24h3M20 25h1" />
<path stroke="#b89025" d="M10 9h1M10 10h2M11 11h2M3 15h2M4 16h2M5 17h1" />
<path stroke="#a17e20" d="M9 10h1M10 11h1M11 12h1M4 14h1M5 15h2M6 16h1" />
</svg>