<svg xmlns="http://www.w3.org/2000/svg" viewBox="0 -0.5 32 32" shape-rendering="crispEdges">
<metadata>Made with Pixels to Svg https://codepen.io/shshaw/pen/XbxvNj</metadata>
<path stroke="#4d2a23" d="M11 5h9M10 6h1M20 6h1M9 7h1M21 7h1M8 8h1M22 8h1M7 9h1M23 9h1M6 10h1M24 10h1M5 11h1M25 11h1M4 12h1M26 12h1M3 13h1M27 13h1M2 14h1M28 14h1M2 15h1M4 15h1M25 15h2M28 15h1M3 16h1M5 16h1M24 16h1M26 16h1M28 16h1M5 17h1M24 17h1M27 17h1M5 18h1M24 18h1M5 19h1M24 19h1M5 20h1M24 20h1M5 21h1M24 21h1M5 22h1M24 22h1M5 23h1M24 23h1M4 24h1M25 24h2M3 25h1M27 25h1M2 26h1M28 26h1M2 27h1M5 27h3M10 27h3M14 27h2M17 27h5M24 27h3M28 27h1M2 28h1M5 28h1M7 28h1M10 28h1M12 28h1M14 28h1M16 28h1M21 28h1M24 28h1M27 28h1M2 29h1M5 29h1M8 29h1M10 29h1M13 29h1M21 29h1M23 29h1M2 30h1M4 30h1M9 30h1M21 30h1M23 30h1M3 31h1M22 31h1" />
<path stroke="#6b7d4d" d="M11 6h7M10 7h7M9 8h7M8 9h7M7 10h7M6 11h7M5 12h7M4 13h7M3 14h7M3 15h1M5 15h4M6 16h1M8 16h1M6 17h1M10 17h1M6 18h1M9 18h2M6 19h1M9 19h2M6 20h1M9 20h2M6 21h1M9 21h2M6 22h1M9 22h2M6 23h1M9 23h2M5 24h2M9 24h3M4 25h4M9 25h3M3 26h5M9 26h3M3 27h2M8 27h2M3 28h2M8 28h2M3 29h2M9 29h1M3 30h1" />
<path stroke="#a8bf91" d="M18 6h2M17 7h2M20 7h1M16 8h2M21 8h1M15 9h2M22 9h1M14 10h2M23 10h1M13 11h3M24 11h1M12 12h2M15 12h1M25 12h1M11 13h2M26 13h1M10 14h2M27 14h1M9 15h16M27 15h1M9 16h2M16 16h2M21 16h1M27 16h1M9 17h1M14 17h2M17 17h1M19 17h1M23 17h1M14 18h2M19 18h1M23 18h1M14 19h2M19 19h1M23 19h1M14 20h2M19 20h1M23 20h1M14 21h2M19 21h1M23 21h1M14 22h2M19 22h1M23 22h1M14 23h2M19 23h1M23 23h1M12 24h4M17 24h3M22 24h3M12 25h9M22 25h5M12 26h16M13 27h1M16 27h1M22 27h2M27 27h1M13 28h1M22 28h2M22 29h1M22 30h1" />
<path stroke="#8a8f38" d="M19 7h1M20 8h1M21 9h1M21 10h2M21 11h1M23 11h1M21 12h1M23 12h2M23 13h1M25 13h1M26 14h1" />
<path stroke="#829470" d="M18 8h2M17 9h4M16 10h2M20 10h1M16 11h2M20 11h1M22 11h1M14 12h1M16 12h3M20 12h1M22 12h1M13 13h6M20 13h3M24 13h1M12 14h14M13 16h3M18 16h2M22 16h2M13 17h1M18 17h1M22 17h1M13 18h1M18 18h1M22 18h1M13 19h1M18 19h1M22 19h1M13 20h1M18 20h1M22 20h1M13 21h1M18 21h1M22 21h1M13 22h1M18 22h1M22 22h1M13 23h1M18 23h1M22 23h1" />
<path stroke="#4d5937" d="M18 10h2M18 11h2M19 12h1M19 13h1M7 16h1M11 16h2M20 16h1M7 17h2M11 17h2M16 17h1M20 17h2M7 18h2M11 18h2M16 18h2M20 18h2M7 19h2M11 19h2M16 19h2M20 19h2M7 20h2M11 20h2M16 20h2M20 20h2M7 21h2M11 21h2M16 21h2M20 21h2M7 22h2M11 22h2M16 22h2M20 22h2M7 23h2M11 23h2M16 23h2M20 23h2M7 24h2M16 24h1M20 24h2M8 25h1M21 25h1M8 26h1" />
</svg>