<svg xmlns="http://www.w3.org/2000/svg" viewBox="0 -0.5 32 32" shape-rendering="crispEdges">
<metadata>Made with Pixels to Svg https://codepen.io/shshaw/pen/XbxvNj</metadata>
<path stroke="#4d2a23" d="M8 2h16M8 3h1M23 3h1M5 4h3M24 4h3M5 5h1M26 5h1M5 6h1M26 6h1M5 7h1M26 7h1M5 8h1M26 8h1M5 9h1M11 9h3M18 9h3M26 9h1M5 10h1M11 10h3M18 10h3M26 10h1M3 11h2M11 11h3M18 11h3M27 11h2M3 12h1M11 12h3M18 12h3M28 12h1M3 13h1M12 13h2M19 13h2M28 13h1M3 14h1M12 14h1M20 14h1M28 14h1M3 15h2M27 15h2M5 16h1M26 16h1M5 17h1M26 17h1M5 18h1M26 18h1M5 19h1M26 19h1M5 20h1M26 20h1M5 21h1M26 21h1M5 22h1M26 22h1M5 23h1M26 23h1M5 24h1M26 24h1M5 25h1M26 25h1M5 26h1M24 26h1M26 26h1M5 27h1M8 27h1M23 27h1M25 27h1M5 28h1M8 28h2M13 28h4M18 28h3M23 28h1M5 29h1M7 29h1M10 29h1M13 29h1M16 29h1M18 29h1M20 29h1M23 29h1M5 30h1M7 30h1M10 30h1M12 30h1M17 30h1M21 30h1M23 30h1M6 31h1M11 31h1M22 31h1" />
<path stroke="#8a8f38" d="M9 3h3M20 3h3M8 4h2M22 4h2M6 5h4M22 5h4M6 6h2M24 6h2M6 7h2M24 7h2M6 8h2M24 8h2M6 9h2M24 9h2M6 10h2M24 10h2M5 11h3M24 11h3M4 12h4M24 12h4M5 13h3M25 13h2M6 14h1M26 14h1M10 18h2M20 18h1M10 19h2M20 19h1M10 20h4M15 20h2M19 20h2M23 20h1M9 21h8M18 21h4M23 21h1M8 22h9M18 22h6M8 23h16M8 24h16M10 25h12M10 26h12" />
<path stroke="#829470" d="M12 3h8M10 4h2M14 4h3M19 4h3M10 5h2M14 5h2M19 5h3M8 6h2M14 6h2M20 6h1M22 6h2M8 7h2M14 7h1M20 7h1M22 7h2M8 8h2M22 8h2M8 9h2M22 9h2M8 10h2M22 10h2M8 11h2M22 11h2M8 12h2M22 12h2M8 13h2M9 14h1" />
<path stroke="#a8bf91" d="M12 4h2M17 4h2M12 5h2M16 5h3M10 6h4M16 6h4M21 6h1M10 7h4M15 7h5M21 7h1M10 8h12M10 9h1M14 9h4M21 9h1M10 10h1M14 10h4M21 10h1M10 11h1M14 11h4M21 11h1M10 12h1M14 12h4M21 12h1M10 13h2M14 13h5M21 13h3M8 14h1M10 14h2M13 14h7M21 14h3M8 15h16M8 16h2M22 16h2M8 17h2M22 17h2M12 18h1M16 18h4M12 19h2M16 19h4M17 20h2M17 21h1M17 22h1" />
<path stroke="#6b7d4d" d="M4 13h1M24 13h1M27 13h1M4 14h2M7 14h1M24 14h2M27 14h1M5 15h3M24 15h3M6 16h2M10 16h12M24 16h2M6 17h2M10 17h12M24 17h2M6 18h4M13 18h3M21 18h5M6 19h4M14 19h2M21 19h5M6 20h4M14 20h1M21 20h2M24 20h2M6 21h3M22 21h1M24 21h2M6 22h2M24 22h2M6 23h2M24 23h2M6 24h2M24 24h2M6 25h4M22 25h4M6 26h4M22 26h2M25 26h1M6 27h2M9 27h14M6 28h2M10 28h3M17 28h1M21 28h2M6 29h1M11 29h2M17 29h1M21 29h2M6 30h1M11 30h1M22 30h1" />
</svg>