<svg xmlns="http://www.w3.org/2000/svg" viewBox="0 -0.5 32 32" shape-rendering="crispEdges">
<metadata>Made with Pixels to Svg https://codepen.io/shshaw/pen/XbxvNj</metadata>
<path stroke="#f01700" d="M21 2h2M20 3h1M23 3h2M18 4h2M25 4h2M17 5h1M27 5h2M16 6h1M29 6h1M15 7h1M29 7h1M14 8h1M29 8h1M3 9h3M13 9h1M29 9h1M2 10h1M6 10h2M12 10h1M29 10h1M1 11h1M8 11h1M11 11h1M21 11h1M29 11h1M1 12h1M9 12h2M19 12h3M29 12h1M2 13h1M18 13h1M21 13h1M29 13h1M3 14h1M17 14h1M21 14h1M29 14h1M4 15h1M15 15h2M21 15h1M29 15h1M5 16h1M14 16h1M21 16h1M29 16h1M4 17h1M15 17h2M21 17h1M29 17h1M3 18h1M17 18h1M21 18h1M29 18h1M2 19h1M18 19h1M21 19h1M29 19h1M1 20h1M9 20h2M19 20h3M29 20h1M1 21h1M8 21h1M11 21h1M21 21h1M29 21h1M2 22h1M6 22h2M12 22h1M29 22h1M3 23h3M13 23h1M29 23h1M14 24h1M29 24h1M15 25h1M29 25h1M16 26h1M29 26h1M17 27h1M27 27h2M18 28h2M25 28h2M20 29h1M23 29h2M21 30h2" />
<path stroke="#0a0508" d="M21 3h2M20 4h1M23 4h2M18 5h2M25 5h2M17 6h1M27 6h2M16 7h1M28 7h1M15 8h1M28 8h1M14 9h1M28 9h1M3 10h3M13 10h1M21 10h1M28 10h1M2 11h1M6 11h2M12 11h1M19 11h2M22 11h1M28 11h1M2 12h1M8 12h1M11 12h1M18 12h1M22 12h1M28 12h1M3 13h1M9 13h2M17 13h1M22 13h1M28 13h1M4 14h1M10 14h2M15 14h2M22 14h1M28 14h1M5 15h1M12 15h1M14 15h1M22 15h1M28 15h1M6 16h1M13 16h1M22 16h1M28 16h1M5 17h1M7 17h2M14 17h1M22 17h1M28 17h1M4 18h1M9 18h1M15 18h2M22 18h1M28 18h1M3 19h1M9 19h2M17 19h1M22 19h1M28 19h1M2 20h1M8 20h1M11 20h1M18 20h1M22 20h1M28 20h1M2 21h1M6 21h2M12 21h1M19 21h2M22 21h1M28 21h1M3 22h3M13 22h1M21 22h1M28 22h1M14 23h1M28 23h1M15 24h1M28 24h1M16 25h1M28 25h1M17 26h1M27 26h2M18 27h2M25 27h2M20 28h1M23 28h2M21 29h2" />
<path stroke="#6e5755" d="M21 4h1M20 5h2M18 6h4M17 7h5M16 8h6M15 9h7M14 10h7M3 11h3M13 11h6M3 12h5M13 12h5M4 13h5M14 13h3M5 14h5M6 15h6M7 16h6M9 17h5M10 18h5M4 19h2M11 19h6M3 20h4M12 20h6M3 21h3M13 21h6M14 22h7M15 23h7M16 24h6M17 25h5M18 26h4M20 27h2M21 28h1" />
<path stroke="#806a67" d="M22 4h1M22 5h3M22 6h5M22 7h6M22 8h6M22 9h6M22 10h6M23 11h5M23 12h5M23 13h5M23 14h5M23 15h5M23 16h5M23 17h5M23 18h5M23 19h5M23 20h5M23 21h5M22 22h6M22 23h6M22 24h6M22 25h6M22 26h5M22 27h3M22 28h1" />
<path stroke="#5e4440" d="M12 12h1M12 13h2M13 14h2M5 18h2M6 19h2M7 20h1" />
<path stroke="#4f3532" d="M11 13h1M12 14h1M13 15h1M6 17h1M7 18h2M8 19h1" />
</svg>