<svg xmlns="http://www.w3.org/2000/svg" viewBox="0 -0.5 32 32" shape-rendering="crispEdges">
<metadata>Made with Pixels to Svg https://codepen.io/shshaw/pen/XbxvNj</metadata>
<path stroke="#4d2a23" d="M14 3h2M13 4h1M16 4h2M11 5h2M18 5h2M9 6h2M20 6h2M7 7h2M22 7h2M5 8h2M24 8h2M4 9h1M26 9h2M4 10h2M28 10h1M6 11h2M27 11h2M7 12h1M9 12h1M25 12h2M28 12h1M4 13h1M7 13h1M9 13h3M23 13h2M28 13h1M4 14h3M8 14h1M12 14h2M22 14h1M28 14h1M3 15h1M7 15h2M14 15h2M19 15h2M22 15h1M27 15h2M2 16h1M5 16h1M9 16h2M16 16h3M20 16h1M22 16h1M25 16h2M28 16h1M2 17h1M4 17h1M6 17h2M11 17h2M20 17h1M22 17h1M24 17h1M28 17h1M2 18h1M8 18h2M13 18h1M21 18h2M24 18h1M28 18h1M3 19h2M10 19h2M13 19h1M15 19h1M19 19h2M22 19h2M26 19h3M5 20h2M12 20h2M15 20h4M24 20h2M27 20h2M3 21h2M7 21h2M14 21h2M21 21h2M24 21h2M28 21h1M5 22h2M8 22h1M10 22h1M19 22h2M22 22h2M28 22h1M3 23h1M7 23h2M10 23h3M17 23h2M20 23h2M27 23h2M3 24h1M9 24h2M13 24h4M18 24h2M25 24h2M4 25h2M11 25h2M16 25h2M23 25h2M6 26h2M13 26h1M15 26h1M21 26h1M23 26h1M8 27h1M14 27h1M19 27h3M23 27h1M9 28h1M11 28h1M17 28h2M21 28h1M23 28h1M9 29h1M11 29h6M22 29h1M10 30h1" />
<path stroke="#6b7d4d" d="M14 4h2M13 5h5M11 6h3M17 6h3M9 7h3M14 7h3M19 7h3M7 8h3M12 8h7M21 8h3M6 9h3M11 9h10M23 9h3M8 10h3M13 10h9M24 10h3M4 11h1M10 11h3M15 11h5M22 11h3M12 12h3M17 12h2M20 12h3M14 13h3M19 13h2M16 14h3M4 16h1M6 16h1M8 17h1M4 18h1M10 18h1M12 19h1M4 20h1M5 21h2M3 22h1M7 22h1M11 24h2" />
<path stroke="#56633e" d="M14 6h3M12 7h2M17 7h2M10 8h2M19 8h2M5 9h1M9 9h2M21 9h2M6 10h2M11 10h2M22 10h2M27 10h1M8 11h2M13 11h2M20 11h2M25 11h2M4 12h1M8 12h1M10 12h2M15 12h2M19 12h1M23 12h2M8 13h1M12 13h2M17 13h2M21 13h2M14 14h2M19 14h3M4 15h3M16 15h3M21 15h1M3 16h1M7 16h2M21 16h1M3 17h1M9 17h2M21 17h1M3 18h1M11 18h2M26 20h1M23 21h1M21 22h1M19 23h1M17 24h1M13 25h3M14 26h1" />
<path stroke="#9fb58a" d="M5 11h1M5 12h2M5 13h1M7 14h1M10 14h2M9 15h1M12 15h2M11 16h1M14 16h2M5 17h1M13 17h1M16 17h1M5 18h3M15 18h1M5 19h1M8 19h2M10 20h2M9 21h1M4 22h1M9 22h1M11 22h1M4 23h1M6 23h1M9 23h1M13 23h1M4 24h1M8 24h1M6 25h1M10 25h1M8 26h1M12 26h1M12 28h2" />
<path stroke="#728263" d="M27 12h1M25 13h1M27 13h1M23 14h2M27 14h1M25 15h2M19 16h1M24 16h1M27 16h1M17 17h2M23 17h1M25 17h2M19 18h2M23 18h1M27 18h1M16 19h3M21 19h1M19 20h2M16 21h3M26 21h2M24 22h1M27 22h1M14 23h3M22 23h1M26 23h1M20 24h1M24 24h1M18 25h1M22 25h1M16 26h1M20 26h1M22 26h1M18 27h1M22 27h1M14 28h3M22 28h1" />
<path stroke="#bfd9a5" d="M6 13h1M9 14h1M10 15h2M12 16h2M14 17h2M14 18h1M16 18h1M6 19h2M14 19h1M7 20h3M14 20h1M10 21h4M12 22h3M5 23h1M5 24h3M7 25h3M9 26h3M9 27h5M10 28h1M10 29h1" />
<path stroke="#849672" d="M26 13h1M25 14h2M23 15h2M23 16h1M19 17h1M27 17h1M17 18h2M25 18h2M24 19h2M21 20h3M19 21h2M15 22h4M25 22h2M23 23h3M21 24h3M19 25h3M17 26h3M15 27h3" />
</svg>