<svg xmlns="http://www.w3.org/2000/svg" viewBox="0 -0.5 32 32" shape-rendering="crispEdges">
<metadata>Made with Pixels to Svg https://codepen.io/shshaw/pen/XbxvNj</metadata>
<path stroke="#f01700" d="M4 2h21M3 3h1M25 3h1M2 4h1M24 4h1M27 4h1M1 5h1M5 5h19M26 5h1M28 5h1M1 6h1M4 6h1M25 6h1M29 6h1M1 7h1M4 7h1M24 7h1M29 7h1M1 8h1M4 8h1M23 8h1M28 8h1M1 9h1M4 9h1M22 9h1M27 9h1M1 10h1M4 10h1M21 10h1M26 10h1M1 11h1M4 11h1M20 11h1M25 11h1M28 11h1M1 12h1M4 12h1M19 12h1M24 12h1M27 12h1M29 12h1M1 13h1M4 13h1M18 13h1M23 13h1M26 13h1M29 13h1M1 14h1M4 14h1M17 14h1M22 14h1M26 14h1M29 14h1M1 15h1M4 15h1M16 15h1M21 15h1M26 15h1M29 15h1M1 16h1M4 16h1M15 16h1M20 16h1M26 16h1M29 16h1M1 17h1M4 17h1M6 17h1M14 17h1M19 17h1M26 17h1M29 17h1M1 18h1M4 18h2M7 18h1M13 18h1M18 18h1M26 18h1M29 18h1M1 19h1M4 19h1M8 19h1M12 19h1M17 19h1M26 19h1M29 19h1M1 20h1M4 20h1M9 20h1M11 20h1M16 20h1M26 20h1M29 20h1M1 21h1M4 21h2M10 21h1M15 21h1M26 21h1M29 21h1M1 22h1M4 22h1M6 22h1M14 22h1M26 22h1M29 22h1M1 23h1M4 23h1M7 23h1M13 23h1M26 23h1M29 23h1M1 24h1M4 24h1M8 24h1M12 24h1M26 24h1M29 24h1M1 25h1M4 25h1M9 25h1M11 25h1M26 25h1M29 25h1M1 26h1M4 26h1M10 26h1M26 26h1M29 26h1M1 27h1M5 27h21M29 27h1M2 28h1M28 28h1M3 29h1M27 29h1M4 30h23" />
<path stroke="#806a67" d="M4 3h20M3 4h1M2 5h1M27 7h1M26 8h1M25 9h1M24 10h1M23 11h1M22 12h1M21 13h1M20 14h1M19 15h1M18 16h1M17 17h1M16 18h1M15 19h1M6 20h1M14 20h1M7 21h1M13 21h1M8 22h1M12 22h1M9 23h1M11 23h1M10 24h1M2 27h1M28 27h1M3 28h1M27 28h1M4 29h1M26 29h1" />
<path stroke="#0a0508" d="M24 3h1M5 4h19M4 5h1M27 5h1M3 6h1M26 6h1M28 6h1M3 7h1M25 7h1M28 7h1M3 8h1M24 8h1M27 8h1M3 9h1M23 9h1M26 9h1M3 10h1M22 10h1M25 10h1M3 11h1M21 11h1M24 11h1M3 12h1M20 12h1M23 12h1M28 12h1M3 13h1M19 13h1M22 13h1M27 13h1M3 14h1M18 14h1M21 14h1M27 14h1M3 15h1M17 15h1M20 15h1M27 15h1M3 16h1M16 16h1M19 16h1M27 16h1M3 17h1M15 17h1M18 17h1M27 17h1M3 18h1M6 18h1M14 18h1M17 18h1M27 18h1M3 19h1M5 19h1M7 19h1M13 19h1M16 19h1M27 19h1M3 20h1M5 20h1M8 20h1M12 20h1M15 20h1M27 20h1M3 21h1M6 21h1M9 21h1M11 21h1M14 21h1M27 21h1M3 22h1M7 22h1M10 22h1M13 22h1M27 22h1M3 23h1M8 23h1M12 23h1M27 23h1M3 24h1M9 24h1M11 24h1M27 24h1M3 25h1M10 25h1M27 25h1M3 26h1M27 26h1M4 27h1M26 27h1M5 28h21" />
<path stroke="#4f3532" d="M4 4h1M3 5h1M2 6h1M27 6h1M2 7h1M26 7h1M2 8h1M25 8h1M2 9h1M24 9h1M2 10h1M23 10h1M2 11h1M22 11h1M2 12h1M21 12h1M2 13h1M20 13h1M28 13h1M2 14h1M19 14h1M28 14h1M2 15h1M18 15h1M28 15h1M2 16h1M17 16h1M28 16h1M2 17h1M16 17h1M28 17h1M2 18h1M15 18h1M28 18h1M2 19h1M6 19h1M14 19h1M28 19h1M2 20h1M7 20h1M13 20h1M28 20h1M2 21h1M8 21h1M12 21h1M28 21h1M2 22h1M9 22h1M11 22h1M28 22h1M2 23h1M10 23h1M28 23h1M2 24h1M28 24h1M2 25h1M28 25h1M2 26h1M28 26h1M3 27h1M27 27h1M4 28h1M26 28h1M5 29h21" />
</svg>