<svg xmlns="http://www.w3.org/2000/svg" viewBox="0 -0.5 32 32" shape-rendering="crispEdges">
<metadata>Made with Pixels to Svg https://codepen.io/shshaw/pen/XbxvNj</metadata>
<path stroke="#96001c" d="M11 5h9M10 6h1M20 6h1M9 7h1M21 7h1M8 8h1M22 8h1M7 9h1M23 9h1M6 10h1M24 10h1M5 11h1M25 11h1M4 12h1M26 12h1M3 13h1M27 13h1M2 14h1M28 14h1M2 15h3M25 15h4M5 16h1M24 16h1M5 17h1M24 17h1M5 18h1M24 18h1M5 19h1M24 19h1M5 20h1M24 20h1M5 21h1M24 21h1M5 22h1M24 22h1M5 23h1M24 23h1M4 24h1M25 24h2M3 25h1M27 25h1M2 26h1M28 26h1M2 27h27" />
<path stroke="#ad0c8d" d="M11 6h7M10 7h7M9 8h7M8 9h7M7 10h7M6 11h7M5 12h7M4 13h7M3 14h7M5 15h4M6 16h1M9 16h2M6 17h1M9 17h2M6 18h1M9 18h2M6 19h1M9 19h2M6 20h1M9 20h2M6 21h1M9 21h2M6 22h1M9 22h2M6 23h1M9 23h2M5 24h7M4 25h8M3 26h9" />
<path stroke="#ff89e7" d="M18 6h2M17 7h2M20 7h1M16 8h2M21 8h1M15 9h2M22 9h1M14 10h2M23 10h1M13 11h2M24 11h1M12 12h2M25 12h1M11 13h2M26 13h1M10 14h2M27 14h1M9 15h16" />
<path stroke="#d431b3" d="M19 7h1M20 8h1M21 9h1M22 10h1M23 11h1M24 12h1M25 13h1M26 14h1M13 16h3M18 16h2M22 16h2M13 17h1M18 17h1M22 17h1M13 18h1M18 18h1M22 18h1M13 19h1M18 19h1M22 19h1M13 20h1M18 20h1M22 20h1M13 21h1M18 21h1M22 21h1M13 22h1M18 22h1M22 22h1M13 23h1M18 23h1M22 23h1" />
<path stroke="#e647c6" d="M18 8h2M17 9h4M16 10h2M20 10h2M15 11h3M20 11h3M14 12h10M13 13h12M12 14h14M14 17h2M19 17h1M23 17h1M14 18h2M19 18h1M23 18h1M14 19h2M19 19h1M23 19h1M14 20h2M19 20h1M23 20h1M14 21h2M19 21h1M23 21h1M14 22h2M19 22h1M23 22h1M14 23h2M19 23h1M23 23h1M12 24h13M12 25h15M12 26h16" />
<path stroke="#85096e" d="M18 10h2M18 11h2M7 16h2M11 16h2M16 16h2M20 16h2M7 17h2M11 17h2M16 17h2M20 17h2M7 18h2M11 18h2M16 18h2M20 18h2M7 19h2M11 19h2M16 19h2M20 19h2M7 20h2M11 20h2M16 20h2M20 20h2M7 21h2M11 21h2M16 21h2M20 21h2M7 22h2M11 22h2M16 22h2M20 22h2M7 23h2M11 23h2M16 23h2M20 23h2" />
</svg>