<svg xmlns="http://www.w3.org/2000/svg" viewBox="0 -0.5 27 27" shape-rendering="crispEdges">
<metadata>Made with Pixels to Svg https://codepen.io/shshaw/pen/XbxvNj</metadata>
<path stroke="#4d2a23" d="M19 0h2M18 1h1M21 1h2M16 2h2M23 2h2M15 3h1M25 3h2M14 4h1M26 4h1M13 5h1M26 5h1M12 6h1M26 6h1M1 7h3M11 7h1M26 7h1M0 8h1M4 8h2M10 8h1M17 8h1M20 8h1M26 8h1M0 9h1M6 9h1M9 9h1M16 9h2M19 9h2M26 9h1M0 10h1M7 10h2M15 10h1M17 10h1M19 10h2M26 10h1M0 11h1M2 11h1M8 11h2M13 11h1M15 11h1M18 11h1M20 11h1M26 11h1M0 12h1M2 12h2M10 12h1M12 12h1M14 12h1M20 12h1M26 12h1M1 13h1M4 13h1M11 13h1M20 13h1M26 13h1M3 14h1M5 14h2M12 14h1M20 14h1M26 14h1M2 15h1M7 15h1M13 15h2M20 15h1M26 15h1M1 16h1M7 16h2M15 16h1M20 16h1M26 16h1M0 17h1M6 17h1M9 17h1M16 17h1M20 17h1M26 17h1M0 18h1M4 18h2M10 18h1M17 18h2M20 18h1M26 18h1M0 19h1M3 19h1M10 19h1M19 19h1M26 19h1M0 20h1M3 20h1M10 20h1M12 20h1M26 20h1M1 21h1M3 21h1M10 21h1M12 21h2M26 21h1M1 22h1M3 22h1M11 22h1M14 22h1M26 22h1M2 23h1M14 23h1M26 23h1M15 24h1M23 24h1M25 24h1M15 25h1M17 25h2M21 25h3M25 25h1M16 26h1M19 26h2M24 26h1" />
<path stroke="#8a8f38" d="M19 1h2M18 2h1M21 2h2M16 3h2M23 3h2M15 4h1M25 4h1M14 5h1M25 5h1M13 6h1M25 6h1M12 7h1M17 7h1M20 7h1M25 7h1M1 8h3M11 8h1M16 8h1M19 8h1M21 8h1M25 8h1M1 9h1M4 9h2M10 9h1M15 9h1M18 9h1M21 9h1M25 9h1M1 10h2M6 10h1M10 10h2M13 10h2M18 10h1M21 10h1M25 10h1M1 11h1M3 11h1M7 11h1M11 11h2M14 11h1M21 11h1M25 11h1M1 12h1M4 12h1M8 12h2M21 12h1M25 12h1M5 13h2M10 13h1M21 13h1M25 13h1M7 14h1M11 14h1M21 14h1M25 14h1M3 15h2M8 15h1M12 15h1M21 15h1M25 15h1M2 16h1M5 16h1M9 16h1M13 16h2M21 16h1M25 16h1M1 17h1M4 17h2M10 17h1M15 17h1M21 17h1M25 17h1M1 18h1M3 18h1M16 18h1M21 18h1M25 18h1M1 19h1M12 19h1M17 19h2M20 19h1M25 19h1M1 20h1M11 20h1M13 20h1M19 20h1M25 20h1M11 21h1M14 21h1M25 21h1M15 22h1M25 22h1M15 23h3M23 23h1M25 23h1M16 24h3M21 24h2M16 25h1M19 25h2" />
<path stroke="#829470" d="M19 2h1M18 3h2M16 4h4M15 5h5M14 6h6M13 7h4M18 7h2M12 8h4M18 8h1M2 9h2M11 9h4M3 10h3M12 10h1M4 11h3M5 12h3M7 13h3M8 14h3M9 15h3M3 16h2M10 16h3M2 17h2M11 17h4M2 18h1M11 18h5M2 19h1M11 19h1M13 19h4M2 20h1M14 20h5M2 21h1M15 21h5M2 22h1M16 22h4M18 23h2M19 24h1" />
<path stroke="#a8bf91" d="M20 2h1M20 3h3M20 4h5M20 5h5M20 6h5M21 7h4M22 8h3M22 9h3M22 10h3M22 11h3M22 12h3M22 13h3M22 14h3M22 15h3M22 16h3M22 17h3M22 18h3M21 19h4M20 20h5M20 21h5M20 22h5M20 23h3M24 23h1M20 24h1M24 24h1M24 25h1" />
<path stroke="#6b7d4d" d="M9 10h1M10 11h1M11 12h1M4 14h1M5 15h2M6 16h1" />
</svg>