<svg xmlns="http://www.w3.org/2000/svg" viewBox="0 -0.5 32 32" shape-rendering="crispEdges">
<metadata>Made with Pixels to Svg https://codepen.io/shshaw/pen/XbxvNj</metadata>
<path stroke="#f01700" d="M14 2h3M13 3h1M17 3h1M12 4h1M18 4h1M11 5h1M19 5h1M10 6h2M20 6h1M9 7h1M11 7h2M21 7h1M8 8h1M12 8h2M22 8h1M7 9h1M13 9h4M23 9h1M6 10h1M13 10h1M17 10h1M24 10h1M5 11h1M13 11h1M17 11h1M25 11h1M4 12h1M14 12h1M16 12h2M26 12h1M3 13h1M15 13h1M17 13h2M27 13h1M2 14h1M15 14h1M18 14h2M21 14h1M28 14h1M1 15h1M15 15h1M19 15h2M22 15h1M29 15h1M1 16h1M15 16h1M19 16h1M22 16h1M29 16h1M1 17h1M15 17h1M19 17h1M22 17h1M29 17h1M2 18h1M15 18h1M20 18h2M28 18h1M3 19h1M15 19h1M27 19h1M4 20h1M14 20h1M16 20h1M26 20h1M5 21h1M13 21h1M17 21h1M25 21h1M6 22h1M13 22h1M17 22h1M24 22h1M7 23h1M14 23h3M23 23h1M8 24h1M22 24h1M9 25h1M21 25h1M10 26h1M20 26h1M11 27h1M19 27h1M12 28h1M18 28h1M13 29h1M17 29h1M14 30h3" />
<path stroke="#0a0508" d="M14 3h3M13 4h1M17 4h1M12 5h1M18 5h1M12 6h1M19 6h1M10 7h1M13 7h1M20 7h1M9 8h1M11 8h1M14 8h3M21 8h1M8 9h1M12 9h1M17 9h1M22 9h1M7 10h1M12 10h1M18 10h1M23 10h1M6 11h1M12 11h1M18 11h1M24 11h1M5 12h1M13 12h1M18 12h1M25 12h1M4 13h1M14 13h1M16 13h1M19 13h1M21 13h1M26 13h1M3 14h1M14 14h1M16 14h2M20 14h1M22 14h1M27 14h1M2 15h1M14 15h1M16 15h1M18 15h1M23 15h1M28 15h1M2 16h1M14 16h1M16 16h1M18 16h1M23 16h1M28 16h1M2 17h1M14 17h1M16 17h1M18 17h1M23 17h1M28 17h1M3 18h1M14 18h1M16 18h1M19 18h1M22 18h1M27 18h1M4 19h1M14 19h1M16 19h1M20 19h2M26 19h1M5 20h1M13 20h1M17 20h1M25 20h1M6 21h1M12 21h1M18 21h1M24 21h1M7 22h1M12 22h1M18 22h1M23 22h1M8 23h1M13 23h1M17 23h1M22 23h1M9 24h1M14 24h3M21 24h1M10 25h1M20 25h1M11 26h1M19 26h1M12 27h1M18 27h1M13 28h1M17 28h1M14 29h3" />
<path stroke="#4f3532" d="M14 4h3M13 5h1M17 5h1M13 6h1M18 6h1M14 7h3M19 7h1M10 8h1M17 8h1M20 8h1M9 9h1M11 9h1M18 9h1M21 9h1M8 10h1M11 10h1M19 10h1M22 10h1M7 11h1M11 11h1M19 11h1M23 11h1M6 12h1M12 12h1M19 12h1M21 12h1M24 12h1M5 13h1M13 13h1M20 13h1M22 13h1M25 13h1M4 14h1M13 14h1M23 14h1M26 14h1M3 15h1M13 15h1M17 15h1M24 15h1M27 15h1M3 16h1M13 16h1M17 16h1M24 16h1M27 16h1M3 17h1M13 17h1M17 17h1M24 17h1M27 17h1M4 18h1M13 18h1M17 18h2M23 18h1M26 18h1M5 19h1M13 19h1M17 19h1M19 19h1M22 19h1M25 19h1M6 20h1M12 20h1M18 20h1M20 20h2M24 20h1M7 21h1M11 21h1M19 21h1M23 21h1M8 22h1M11 22h1M19 22h1M22 22h1M9 23h1M12 23h1M18 23h1M21 23h1M10 24h1M13 24h1M17 24h1M20 24h1M11 25h1M14 25h3M19 25h1M12 26h1M18 26h1M13 27h1M17 27h1M14 28h3" />
<path stroke="#806a67" d="M14 5h3M14 6h4M17 7h2M18 8h2M10 9h1M19 9h2M9 10h2M20 10h2M8 11h3M20 11h3M7 12h5M20 12h1M22 12h2M6 13h7M23 13h2M5 14h8M24 14h2M4 15h9M25 15h2M4 16h9M25 16h2M4 17h9M25 17h2M5 18h8M24 18h2M6 19h7M18 19h1M23 19h2M7 20h5M19 20h1M22 20h2M8 21h3M20 21h3M9 22h2M20 22h2M10 23h2M19 23h2M11 24h2M18 24h2M12 25h2M17 25h2M13 26h5M14 27h3" />
</svg>