<svg xmlns="http://www.w3.org/2000/svg" viewBox="0 -0.5 32 32" shape-rendering="crispEdges">
<metadata>Made with Pixels to Svg https://codepen.io/shshaw/pen/XbxvNj</metadata>
<path stroke="#6a220f" d="M8 2h16M8 3h1M23 3h1M5 4h3M24 4h3M5 5h1M26 5h1M5 6h1M26 6h1M5 7h1M26 7h1M5 8h1M26 8h1M5 9h1M11 9h3M18 9h3M26 9h1M5 10h1M11 10h3M18 10h3M26 10h1M3 11h2M11 11h3M18 11h3M27 11h2M3 12h1M11 12h3M18 12h3M28 12h1M3 13h1M28 13h1M3 14h1M28 14h1M3 15h2M27 15h2M5 16h1M26 16h1M5 17h1M26 17h1M5 18h1M26 18h1M5 19h1M26 19h1M5 20h1M26 20h1M5 21h1M26 21h1M5 22h1M26 22h1M5 23h1M26 23h1M5 24h1M26 24h1M5 25h1M26 25h1M5 26h3M24 26h3M8 27h1M23 27h1M8 28h16" />
<path stroke="#b89025" d="M9 3h3M20 3h3M8 4h2M22 4h2M6 5h4M22 5h4M6 6h2M24 6h2M6 7h2M24 7h2M6 8h2M24 8h2M6 9h2M24 9h2M6 10h2M24 10h2M5 11h3M24 11h3M4 12h4M24 12h4M10 18h2M20 18h2M10 19h2M20 19h2M8 20h16M8 21h16M8 22h16M8 23h16M8 24h16M10 25h12M10 26h12" />
<path stroke="#ccb645" d="M12 3h8M10 4h2M20 4h2M10 5h2M20 5h2M8 6h2M22 6h2M8 7h2M22 7h2M8 8h2M22 8h2M8 9h2M22 9h2M8 10h2M22 10h2M8 11h2M22 11h2M8 12h2M22 12h2" />
<path stroke="#e9d673" d="M12 4h8M12 5h8M10 6h12M10 7h12M10 8h12M10 9h1M14 9h4M21 9h1M10 10h1M14 10h4M21 10h1M10 11h1M14 11h4M21 11h1M10 12h1M14 12h4M21 12h1M8 13h16M8 14h16M8 15h16M8 16h2M22 16h2M8 17h2M22 17h2M12 18h8M12 19h8" />
<path stroke="#a97621" d="M4 13h4M24 13h4M4 14h4M24 14h4M5 15h3M24 15h3M6 16h2M10 16h12M24 16h2M6 17h2M10 17h12M24 17h2M6 18h4M22 18h4M6 19h4M22 19h4M6 20h2M24 20h2M6 21h2M24 21h2M6 22h2M24 22h2M6 23h2M24 23h2M6 24h2M24 24h2M6 25h4M22 25h4M8 26h2M22 26h2M9 27h14" />
</svg>