<svg xmlns="http://www.w3.org/2000/svg" viewBox="0 -0.5 32 32" shape-rendering="crispEdges">
<metadata>Made with Pixels to Svg https://codepen.io/shshaw/pen/XbxvNj</metadata>
<path stroke="#4d2a23" d="M14 3h3M13 4h1M17 4h1M12 5h1M18 5h1M12 6h1M19 6h1M10 7h1M13 7h1M20 7h1M9 8h1M11 8h1M14 8h2M21 8h1M8 9h1M12 9h1M15 9h1M17 9h1M22 9h1M7 10h1M12 10h1M15 10h1M17 10h2M23 10h1M6 11h1M12 11h1M16 11h1M18 11h1M24 11h1M5 12h1M13 12h1M18 12h1M25 12h1M4 13h1M14 13h1M16 13h1M19 13h1M21 13h1M26 13h1M3 14h1M14 14h1M16 14h2M19 14h1M21 14h2M27 14h1M2 15h1M14 15h1M16 15h1M18 15h2M21 15h1M23 15h1M28 15h1M2 16h1M14 16h1M16 16h1M18 16h1M20 16h1M23 16h1M28 16h1M2 17h1M14 17h1M16 17h1M18 17h1M23 17h1M28 17h1M2 18h1M14 18h1M16 18h1M19 18h1M22 18h1M28 18h1M2 19h1M4 19h1M14 19h2M20 19h2M28 19h1M3 20h1M5 20h1M13 20h1M15 20h1M25 20h1M27 20h1M5 21h1M12 21h1M15 21h1M17 21h2M24 21h2M27 21h1M5 22h1M12 22h1M16 22h1M18 22h1M23 22h1M25 22h1M27 22h1M5 23h1M8 23h1M13 23h1M17 23h1M23 23h1M26 23h1M5 24h1M7 24h1M9 24h1M14 24h3M21 24h1M23 24h1M6 25h1M9 25h1M20 25h2M23 25h1M9 26h1M19 26h1M22 26h1M9 27h1M18 27h1M10 28h1M13 28h1M17 28h1M10 29h1M12 29h1M14 29h1M16 29h1M11 30h1M14 30h1M16 30h1M15 31h1" />
<path stroke="#829470" d="M14 4h3M13 5h1M17 5h1M13 6h1M18 6h1M14 7h3M19 7h1M10 8h1M16 8h2M20 8h1M9 9h1M11 9h1M16 9h1M18 9h1M21 9h1M8 10h1M11 10h1M16 10h1M19 10h1M22 10h1M7 11h1M11 11h1M19 11h1M23 11h1M6 12h1M12 12h1M19 12h1M21 12h1M24 12h1M5 13h1M13 13h1M22 13h1M25 13h1M4 14h1M13 14h1M23 14h1M26 14h1M3 15h1M13 15h1M17 15h1M20 15h1M24 15h1M27 15h1M3 16h1M13 16h1M17 16h1M24 16h1M27 16h1M3 17h1M13 17h1M17 17h1M24 17h1M27 17h1M3 18h2M13 18h1M17 18h2M23 18h1M27 18h1M3 19h1M5 19h1M13 19h1M16 19h1M19 19h1M22 19h1M25 19h1M27 19h1M12 20h1M16 20h3M20 20h2M24 20h1M26 20h1M6 21h1M11 21h1M16 21h1M19 21h1M23 21h1M26 21h1M6 22h1M8 22h1M11 22h1M19 22h1M26 22h1M6 23h2M9 23h1M12 23h1M18 23h1M21 23h1M6 24h1M10 24h1M13 24h1M17 24h1M20 24h1M10 25h1M14 25h3M19 25h1M22 25h1M10 26h1M18 26h1M10 27h1M13 27h1M17 27h1M12 28h1M14 28h3M11 29h1M15 29h1M15 30h1" />
<path stroke="#a8bf91" d="M14 5h3M14 6h4M17 7h2M18 8h2M10 9h1M19 9h2M9 10h2M20 10h2M8 11h3M20 11h3M7 12h5M20 12h1M22 12h2M6 13h7M20 13h1M23 13h2M5 14h8M20 14h1M24 14h2M4 15h9M25 15h2M4 16h9M25 16h2M4 17h9M25 17h2M5 18h8M24 18h3M6 19h7M17 19h2M23 19h2M26 19h1M6 20h6M19 20h1M22 20h2M7 21h4M20 21h3M7 22h1M9 22h2M20 22h3M10 23h2M19 23h2M22 23h1M11 24h2M18 24h2M22 24h1M11 25h3M17 25h2M11 26h7M11 27h2M14 27h3M11 28h1" />
</svg>